<?xml version="1.0" encoding="UTF-8"?>
<svg xmlns="http://www.w3.org/2000/svg" xmlns:xlink="http://www.w3.org/1999/xlink" width="288px" height="252px" viewBox="0 0 288 252" version="1.1" id="Fig:dens">
  <metadata xmlns:gridsvg="http://www.stat.auckland.ac.nz/~paul/R/gridSVG/">
    <gridsvg:generator name="gridSVG" version="1.7-5" time="2023-12-18 10:19:16.880574"/>
    <gridsvg:argument name="name" value="report_exprsdata/dens.svg"/>
    <gridsvg:argument name="exportCoords" value="none"/>
    <gridsvg:argument name="exportMappings" value="none"/>
    <gridsvg:argument name="exportJS" value="none"/>
    <gridsvg:argument name="res" value="72"/>
    <gridsvg:argument name="prefix" value="Fig:dens"/>
    <gridsvg:argument name="addClasses" value="FALSE"/>
    <gridsvg:argument name="indent" value="TRUE"/>
    <gridsvg:argument name="htmlWrapper" value="FALSE"/>
    <gridsvg:argument name="usePaths" value="none"/>
    <gridsvg:argument name="uniqueNames" value="TRUE"/>
    <gridsvg:separator name="id.sep" value="."/>
    <gridsvg:separator name="gPath.sep" value="::"/>
    <gridsvg:separator name="vpPath.sep" value="::"/>
  </metadata>
  <g transform="translate(0, 252) scale(1, -1)">
    <g id="Fig:densgridSVG" fill="none" stroke="rgb(0,0,0)" stroke-dasharray="none" stroke-width="0.75" font-size="12" font-family="Helvetica, Arial, FreeSans, Liberation Sans, Nimbus Sans L, sans-serif" opacity="1" stroke-linecap="round" stroke-linejoin="round" stroke-miterlimit="10" stroke-opacity="1" fill-opacity="0" font-weight="normal" font-style="normal">
      <g id="Fig:densplot_01.background.1">
        <rect id="Fig:densplot_01.background.1.1" x="0" y="0" width="288" height="252" transform="" fill="none" stroke="none" stroke-opacity="0" fill-opacity="0"/>
      </g>
      <g id="Fig:densplot_01.toplevel.vp.1" font-size="12">
        <g id="Fig:densplot_01.ylab.vp.1">
          <g id="Fig:densplot_01.ylab.1">
            <g id="Fig:densplot_01.ylab.1.1" transform="translate(16.31, 141.09)" stroke-width="0.1">
              <g id="Fig:densplot_01.ylab.1.1.scale" transform="scale(1, -1)">
                <text x="0" y="0" id="Fig:densplot_01.ylab.1.1.text" transform="rotate(-90)" text-anchor="middle" opacity="1" stroke="rgb(0,0,0)" fill="rgb(0,0,0)" stroke-opacity="1" fill-opacity="1" font-size="12" font-weight="normal" font-style="normal">
                  <tspan id="Fig:densplot_01.ylab.1.1.tspan.1" dy="4.31" x="0">Density</tspan>
                </text>
              </g>
            </g>
          </g>
        </g>
        <g id="Fig:densplot_01.figure.vp.1"/>
        <defs>
          <clipPath id="Fig:densplot_01.panel.1.1.vp.1.clipPath">
            <rect x="50.8" y="48.19" width="225.2" height="185.81" fill="none" stroke="none"/>
          </clipPath>
        </defs>
        <g id="Fig:densplot_01.panel.1.1.vp.1" clip-path="url(#Fig:densplot_01.panel.1.1.vp.1.clipPath)"/>
        <g id="Fig:densplot_01.strip.1.1.off.vp.1"/>
        <g id="Fig:densplot_01.strip.left.1.1.off.vp.1">
          <g id="Fig:densplot_01.ticks.left.panel.1.1.1">
            <polyline id="Fig:densplot_01.ticks.left.panel.1.1.1.1" points="50.8,59.6 45.13,59.6" stroke="rgb(0,0,0)" opacity="1" stroke-dasharray="none" stroke-width="0.75" stroke-opacity="1" fill="none"/>
            <polyline id="Fig:densplot_01.ticks.left.panel.1.1.1.2" points="50.8,102.26 45.13,102.26" stroke="rgb(0,0,0)" opacity="1" stroke-dasharray="none" stroke-width="0.75" stroke-opacity="1" fill="none"/>
            <polyline id="Fig:densplot_01.ticks.left.panel.1.1.1.3" points="50.8,144.92 45.13,144.92" stroke="rgb(0,0,0)" opacity="1" stroke-dasharray="none" stroke-width="0.75" stroke-opacity="1" fill="none"/>
            <polyline id="Fig:densplot_01.ticks.left.panel.1.1.1.4" points="50.8,187.58 45.13,187.58" stroke="rgb(0,0,0)" opacity="1" stroke-dasharray="none" stroke-width="0.75" stroke-opacity="1" fill="none"/>
            <polyline id="Fig:densplot_01.ticks.left.panel.1.1.1.5" points="50.8,230.24 45.13,230.24" stroke="rgb(0,0,0)" opacity="1" stroke-dasharray="none" stroke-width="0.75" stroke-opacity="1" fill="none"/>
          </g>
          <g id="Fig:densplot_01.ticklabels.left.panel.1.1.1">
            <g id="Fig:densplot_01.ticklabels.left.panel.1.1.1.1" transform="translate(39.47, 59.6)" stroke-width="0.1">
              <g id="Fig:densplot_01.ticklabels.left.panel.1.1.1.1.scale" transform="scale(1, -1)">
                <text x="0" y="0" id="Fig:densplot_01.ticklabels.left.panel.1.1.1.1.text" transform="rotate(-90)" text-anchor="middle" stroke="rgb(0,0,0)" opacity="1" fill="rgb(0,0,0)" stroke-opacity="1" fill-opacity="1" font-size="9.6" font-weight="normal" font-style="normal">
                  <tspan id="Fig:densplot_01.ticklabels.left.panel.1.1.1.1.tspan.1" dy="0" x="0">0.000</tspan>
                </text>
              </g>
            </g>
            <g id="Fig:densplot_01.ticklabels.left.panel.1.1.1.2" transform="translate(39.47, 102.26)" stroke-width="0.1">
              <g id="Fig:densplot_01.ticklabels.left.panel.1.1.1.2.scale" transform="scale(1, -1)">
                <text x="0" y="0" id="Fig:densplot_01.ticklabels.left.panel.1.1.1.2.text" transform="rotate(-90)" text-anchor="middle" stroke="rgb(0,0,0)" opacity="1" fill="rgb(0,0,0)" stroke-opacity="1" fill-opacity="1" font-size="9.6" font-weight="normal" font-style="normal">
                  <tspan id="Fig:densplot_01.ticklabels.left.panel.1.1.1.2.tspan.1" dy="0" x="0">0.002</tspan>
                </text>
              </g>
            </g>
            <g id="Fig:densplot_01.ticklabels.left.panel.1.1.1.3" transform="translate(39.47, 144.92)" stroke-width="0.1">
              <g id="Fig:densplot_01.ticklabels.left.panel.1.1.1.3.scale" transform="scale(1, -1)">
                <text x="0" y="0" id="Fig:densplot_01.ticklabels.left.panel.1.1.1.3.text" transform="rotate(-90)" text-anchor="middle" stroke="rgb(0,0,0)" opacity="1" fill="rgb(0,0,0)" stroke-opacity="1" fill-opacity="1" font-size="9.6" font-weight="normal" font-style="normal">
                  <tspan id="Fig:densplot_01.ticklabels.left.panel.1.1.1.3.tspan.1" dy="0" x="0">0.004</tspan>
                </text>
              </g>
            </g>
            <g id="Fig:densplot_01.ticklabels.left.panel.1.1.1.4" transform="translate(39.47, 187.58)" stroke-width="0.1">
              <g id="Fig:densplot_01.ticklabels.left.panel.1.1.1.4.scale" transform="scale(1, -1)">
                <text x="0" y="0" id="Fig:densplot_01.ticklabels.left.panel.1.1.1.4.text" transform="rotate(-90)" text-anchor="middle" stroke="rgb(0,0,0)" opacity="1" fill="rgb(0,0,0)" stroke-opacity="1" fill-opacity="1" font-size="9.6" font-weight="normal" font-style="normal">
                  <tspan id="Fig:densplot_01.ticklabels.left.panel.1.1.1.4.tspan.1" dy="0" x="0">0.006</tspan>
                </text>
              </g>
            </g>
            <g id="Fig:densplot_01.ticklabels.left.panel.1.1.1.5" transform="translate(39.47, 230.24)" stroke-width="0.1">
              <g id="Fig:densplot_01.ticklabels.left.panel.1.1.1.5.scale" transform="scale(1, -1)">
                <text x="0" y="0" id="Fig:densplot_01.ticklabels.left.panel.1.1.1.5.text" transform="rotate(-90)" text-anchor="middle" stroke="rgb(0,0,0)" opacity="1" fill="rgb(0,0,0)" stroke-opacity="1" fill-opacity="1" font-size="9.6" font-weight="normal" font-style="normal">
                  <tspan id="Fig:densplot_01.ticklabels.left.panel.1.1.1.5.tspan.1" dy="0" x="0">0.008</tspan>
                </text>
              </g>
            </g>
          </g>
        </g>
        <g id="Fig:densplot_01.panel.1.1.off.vp.1">
          <g id="Fig:densplot_01.ticks.bottom.panel.1.1.1">
            <polyline id="Fig:densplot_01.ticks.bottom.panel.1.1.1.1" points="64.12,48.19 64.12,42.52" stroke="rgb(0,0,0)" opacity="1" stroke-dasharray="none" stroke-width="0.75" stroke-opacity="1" fill="none"/>
            <polyline id="Fig:densplot_01.ticks.bottom.panel.1.1.1.2" points="110.53,48.19 110.53,42.52" stroke="rgb(0,0,0)" opacity="1" stroke-dasharray="none" stroke-width="0.75" stroke-opacity="1" fill="none"/>
            <polyline id="Fig:densplot_01.ticks.bottom.panel.1.1.1.3" points="156.95,48.19 156.95,42.52" stroke="rgb(0,0,0)" opacity="1" stroke-dasharray="none" stroke-width="0.75" stroke-opacity="1" fill="none"/>
            <polyline id="Fig:densplot_01.ticks.bottom.panel.1.1.1.4" points="203.36,48.19 203.36,42.52" stroke="rgb(0,0,0)" opacity="1" stroke-dasharray="none" stroke-width="0.75" stroke-opacity="1" fill="none"/>
            <polyline id="Fig:densplot_01.ticks.bottom.panel.1.1.1.5" points="249.77,48.19 249.77,42.52" stroke="rgb(0,0,0)" opacity="1" stroke-dasharray="none" stroke-width="0.75" stroke-opacity="1" fill="none"/>
          </g>
          <g id="Fig:densplot_01.ticklabels.bottom.panel.1.1.1">
            <g id="Fig:densplot_01.ticklabels.bottom.panel.1.1.1.1" transform="translate(64.12, 36.85)" stroke-width="0.1">
              <g id="Fig:densplot_01.ticklabels.bottom.panel.1.1.1.1.scale" transform="scale(1, -1)">
                <text x="0" y="0" id="Fig:densplot_01.ticklabels.bottom.panel.1.1.1.1.text" text-anchor="middle" stroke="rgb(0,0,0)" opacity="1" fill="rgb(0,0,0)" stroke-opacity="1" fill-opacity="1" font-size="9.6" font-weight="normal" font-style="normal">
                  <tspan id="Fig:densplot_01.ticklabels.bottom.panel.1.1.1.1.tspan.1" dy="7.18" x="0">0</tspan>
                </text>
              </g>
            </g>
            <g id="Fig:densplot_01.ticklabels.bottom.panel.1.1.1.2" transform="translate(110.53, 36.85)" stroke-width="0.1">
              <g id="Fig:densplot_01.ticklabels.bottom.panel.1.1.1.2.scale" transform="scale(1, -1)">
                <text x="0" y="0" id="Fig:densplot_01.ticklabels.bottom.panel.1.1.1.2.text" text-anchor="middle" stroke="rgb(0,0,0)" opacity="1" fill="rgb(0,0,0)" stroke-opacity="1" fill-opacity="1" font-size="9.6" font-weight="normal" font-style="normal">
                  <tspan id="Fig:densplot_01.ticklabels.bottom.panel.1.1.1.2.tspan.1" dy="7.18" x="0">500</tspan>
                </text>
              </g>
            </g>
            <g id="Fig:densplot_01.ticklabels.bottom.panel.1.1.1.3" transform="translate(156.95, 36.85)" stroke-width="0.1">
              <g id="Fig:densplot_01.ticklabels.bottom.panel.1.1.1.3.scale" transform="scale(1, -1)">
                <text x="0" y="0" id="Fig:densplot_01.ticklabels.bottom.panel.1.1.1.3.text" text-anchor="middle" stroke="rgb(0,0,0)" opacity="1" fill="rgb(0,0,0)" stroke-opacity="1" fill-opacity="1" font-size="9.6" font-weight="normal" font-style="normal">
                  <tspan id="Fig:densplot_01.ticklabels.bottom.panel.1.1.1.3.tspan.1" dy="7.18" x="0">1000</tspan>
                </text>
              </g>
            </g>
            <g id="Fig:densplot_01.ticklabels.bottom.panel.1.1.1.4" transform="translate(203.36, 36.85)" stroke-width="0.1">
              <g id="Fig:densplot_01.ticklabels.bottom.panel.1.1.1.4.scale" transform="scale(1, -1)">
                <text x="0" y="0" id="Fig:densplot_01.ticklabels.bottom.panel.1.1.1.4.text" text-anchor="middle" stroke="rgb(0,0,0)" opacity="1" fill="rgb(0,0,0)" stroke-opacity="1" fill-opacity="1" font-size="9.6" font-weight="normal" font-style="normal">
                  <tspan id="Fig:densplot_01.ticklabels.bottom.panel.1.1.1.4.tspan.1" dy="7.18" x="0">1500</tspan>
                </text>
              </g>
            </g>
            <g id="Fig:densplot_01.ticklabels.bottom.panel.1.1.1.5" transform="translate(249.77, 36.85)" stroke-width="0.1">
              <g id="Fig:densplot_01.ticklabels.bottom.panel.1.1.1.5.scale" transform="scale(1, -1)">
                <text x="0" y="0" id="Fig:densplot_01.ticklabels.bottom.panel.1.1.1.5.text" text-anchor="middle" stroke="rgb(0,0,0)" opacity="1" fill="rgb(0,0,0)" stroke-opacity="1" fill-opacity="1" font-size="9.6" font-weight="normal" font-style="normal">
                  <tspan id="Fig:densplot_01.ticklabels.bottom.panel.1.1.1.5.tspan.1" dy="7.18" x="0">2000</tspan>
                </text>
              </g>
            </g>
          </g>
        </g>
        <defs>
          <clipPath id="Fig:densplot_01.panel.1.1.vp.2.clipPath">
            <rect x="50.8" y="48.19" width="225.2" height="185.81" fill="none" stroke="none"/>
          </clipPath>
        </defs>
        <g id="Fig:densplot_01.panel.1.1.vp.2" clip-path="url(#Fig:densplot_01.panel.1.1.vp.2.clipPath)">
          <g id="Fig:densplot_01.xyplot.lines.group.1.panel.1.1.1">
            <polyline id="Fig:densplot_01.xyplot.lines.group.1.panel.1.1.1.1" points="65.89,59.6 66.27,59.6 66.65,59.6 67.04,59.61 67.42,59.64 67.81,59.69 68.19,59.8 68.57,60.02 68.96,60.44 69.34,61.2 69.73,62.58 70.11,64.87 70.49,68.44 70.88,73.59 71.26,80.5 71.64,89.12 72.03,99.13 72.41,110.02 72.8,121.15 73.18,131.92 73.56,141.83 73.95,150.58 74.33,157.97 74.71,163.93 75.1,168.44 75.48,171.53 75.87,173.31 76.25,173.9 76.63,173.46 77.02,172.15 77.4,170.08 77.79,167.4 78.17,164.23 78.55,160.72 78.94,157.04 79.32,153.36 79.7,149.77 80.09,146.33 80.47,143.01 80.86,139.81 81.24,136.7 81.62,133.67 82.01,130.71 82.39,127.83 82.78,125.09 83.16,122.5 83.54,120.08 83.93,117.82 84.31,115.68 84.69,113.61 85.08,111.59 85.46,109.62 85.85,107.73 86.23,105.93 86.61,104.26 87,102.73 87.38,101.31 87.76,99.99 88.15,98.75 88.53,97.56 88.92,96.41 89.3,95.29 89.68,94.17 90.07,93.04 90.45,91.91 90.84,90.83 91.22,89.82 91.6,88.9 91.99,88.07 92.37,87.3 92.75,86.56 93.14,85.84 93.52,85.12 93.91,84.41 94.29,83.72 94.67,83.06 95.06,82.42 95.44,81.82 95.83,81.25 96.21,80.73 96.59,80.24 96.98,79.78 97.36,79.32 97.74,78.83 98.13,78.32 98.51,77.78 98.9,77.24 99.28,76.72 99.66,76.23 100.05,75.79 100.43,75.38 100.81,75 101.2,74.65 101.58,74.32 101.97,74 102.35,73.69 102.73,73.4 103.12,73.13 103.5,72.87 103.89,72.62 104.27,72.36 104.65,72.08 105.04,71.79 105.42,71.5 105.8,71.21 106.19,70.93 106.57,70.67 106.96,70.45 107.34,70.26 107.72,70.09 108.11,69.93 108.49,69.76 108.88,69.57 109.26,69.36 109.64,69.14 110.03,68.92 110.41,68.72 110.79,68.53 111.18,68.37 111.56,68.24 111.95,68.13 112.33,68.03 112.71,67.93 113.1,67.8 113.48,67.67 113.87,67.52 114.25,67.36 114.63,67.2 115.02,67.04 115.4,66.88 115.78,66.73 116.17,66.59 116.55,66.47 116.94,66.36 117.32,66.26 117.7,66.15 118.09,66.03 118.47,65.91 118.85,65.78 119.24,65.65 119.62,65.53 120.01,65.42 120.39,65.32 120.77,65.24 121.16,65.15 121.54,65.06 121.93,64.97 122.31,64.87 122.69,64.79 123.08,64.72 123.46,64.67 123.84,64.64 124.23,64.61 124.61,64.57 125,64.51 125.38,64.43 125.76,64.33 126.15,64.23 126.53,64.14 126.92,64.06 127.3,64 127.68,63.95 128.07,63.91 128.45,63.86 128.83,63.8 129.22,63.73 129.6,63.66 129.99,63.59 130.37,63.51 130.75,63.45 131.14,63.39 131.52,63.33 131.9,63.28 132.29,63.24 132.67,63.2 133.06,63.16 133.44,63.12 133.82,63.07 134.21,63.01 134.59,62.95 134.98,62.9 135.36,62.85 135.74,62.81 136.13,62.77 136.51,62.73 136.89,62.68 137.28,62.64 137.66,62.61 138.05,62.58 138.43,62.55 138.81,62.53 139.2,62.5 139.58,62.47 139.97,62.43 140.35,62.4 140.73,62.37 141.12,62.35 141.5,62.32 141.88,62.29 142.27,62.26 142.65,62.22 143.04,62.2 143.42,62.17 143.8,62.15 144.19,62.13 144.57,62.12 144.95,62.1 145.34,62.08 145.72,62.05 146.11,62.01 146.49,61.96 146.87,61.92 147.26,61.89 147.64,61.87 148.03,61.86 148.41,61.85 148.79,61.84 149.18,61.82 149.56,61.78 149.94,61.74 150.33,61.69 150.71,61.64 151.1,61.61 151.48,61.59 151.86,61.58 152.25,61.57 152.63,61.56 153.02,61.54 153.4,61.53 153.78,61.52 154.17,61.51 154.55,61.5 154.93,61.49 155.32,61.48 155.7,61.47 156.09,61.46 156.47,61.46 156.85,61.46 157.24,61.45 157.62,61.43 158,61.4 158.39,61.36 158.77,61.3 159.16,61.25 159.54,61.2 159.92,61.16 160.31,61.14 160.69,61.14 161.08,61.13 161.46,61.12 161.84,61.11 162.23,61.1 162.61,61.09 162.99,61.07 163.38,61.06 163.76,61.04 164.15,61.02 164.53,61 164.91,60.97 165.3,60.94 165.68,60.91 166.07,60.89 166.45,60.88 166.83,60.88 167.22,60.88 167.6,60.89 167.98,60.89 168.37,60.89 168.75,60.88 169.14,60.88 169.52,60.87 169.9,60.86 170.29,60.85 170.67,60.84 171.06,60.83 171.44,60.82 171.82,60.81 172.21,60.81 172.59,60.81 172.97,60.81 173.36,60.8 173.74,60.79 174.13,60.78 174.51,60.77 174.89,60.77 175.28,60.77 175.66,60.78 176.04,60.78 176.43,60.78 176.81,60.78 177.2,60.77 177.58,60.75 177.96,60.74 178.35,60.73 178.73,60.71 179.12,60.69 179.5,60.66 179.88,60.64 180.27,60.61 180.65,60.58 181.03,60.56 181.42,60.56 181.8,60.56 182.19,60.57 182.57,60.57 182.95,60.56 183.34,60.54 183.72,60.52 184.11,60.5 184.49,60.48 184.87,60.48 185.26,60.49 185.64,60.5 186.02,60.52 186.41,60.52 186.79,60.52 187.18,60.51 187.56,60.49 187.94,60.48 188.33,60.48 188.71,60.48 189.09,60.48 189.48,60.48 189.86,60.48 190.25,60.47 190.63,60.45 191.01,60.43 191.4,60.42 191.78,60.41 192.17,60.4 192.55,60.4 192.93,60.41 193.32,60.42 193.7,60.42 194.08,60.43 194.47,60.42 194.85,60.41 195.24,60.41 195.62,60.4 196,60.4 196.39,60.39 196.77,60.37 197.16,60.35 197.54,60.33 197.92,60.32 198.31,60.32 198.69,60.32 199.07,60.31 199.46,60.3 199.84,60.29 200.23,60.27 200.61,60.25 200.99,60.23 201.38,60.22 201.76,60.22 202.14,60.21 202.53,60.21 202.91,60.21 203.3,60.21 203.68,60.21 204.06,60.22 204.45,60.23 204.83,60.24 205.22,60.24 205.6,60.25 205.98,60.25 206.37,60.24 206.75,60.24 207.13,60.22 207.52,60.21 207.9,60.2 208.29,60.18 208.67,60.17 209.05,60.17 209.44,60.16 209.82,60.16 210.21,60.16 210.59,60.17 210.97,60.18 211.36,60.19 211.74,60.19 212.12,60.19 212.51,60.18 212.89,60.18 213.28,60.17 213.66,60.16 214.04,60.15 214.43,60.14 214.81,60.13 215.19,60.13 215.58,60.12 215.96,60.11 216.35,60.1 216.73,60.08 217.11,60.07 217.5,60.06 217.88,60.06 218.27,60.05 218.65,60.05 219.03,60.06 219.42,60.07 219.8,60.07 220.18,60.08 220.57,60.08 220.95,60.08 221.34,60.08 221.72,60.09 222.1,60.09 222.49,60.09 222.87,60.09 223.26,60.08 223.64,60.06 224.02,60.05 224.41,60.04 224.79,60.03 225.17,60.03 225.56,60.03 225.94,60.03 226.33,60.03 226.71,60.03 227.09,60.02 227.48,60.01 227.86,60 228.25,59.99 228.63,59.98 229.01,59.99 229.4,59.99 229.78,60 230.16,60 230.55,60.01 230.93,60.01 231.32,60.01 231.7,60.01 232.08,60.01 232.47,60.01 232.85,60 233.23,59.99 233.62,59.98 234,59.97 234.39,59.97 234.77,59.98 235.15,59.98 235.54,59.99 235.92,59.98 236.31,59.98 236.69,59.97 237.07,59.96 237.46,59.96 237.84,59.96 238.22,59.96 238.61,59.97 238.99,59.98 239.38,59.98 239.76,59.98 240.14,59.97 240.53,59.97 240.91,59.96 241.3,59.96 241.68,59.96 242.06,59.96 242.45,59.95 242.83,59.95 243.21,59.95 243.6,59.96 243.98,59.96 244.37,59.95 244.75,59.95 245.13,59.94 245.52,59.93 245.9,59.93 246.28,59.93 246.67,59.93 247.05,59.94 247.44,59.94 247.82,59.95 248.2,59.94 248.59,59.93 248.97,59.93 249.36,59.92 249.74,59.92 250.12,59.91 250.51,59.9 250.89,59.89 251.27,59.88 251.66,59.86 252.04,59.85 252.43,59.85 252.81,59.85 253.19,59.85 253.58,59.85 253.96,59.86 254.35,59.87 254.73,59.87 255.11,59.87 255.5,59.88 255.88,59.88 256.26,59.88 256.65,59.89 257.03,59.89 257.42,59.89 257.8,59.88 258.18,59.86 258.57,59.84 258.95,59.79 259.33,59.75 259.72,59.7 260.1,59.66 260.49,59.63 260.87,59.61 261.25,59.6 261.64,59.6 262.02,59.6" stroke-dasharray="none" stroke="rgb(31,120,180)" stroke-width="0.75" opacity="1" stroke-opacity="1" fill="none"/>
          </g>
          <g id="Fig:densplot_01.xyplot.lines.group.2.panel.1.1.1">
            <polyline id="Fig:densplot_01.xyplot.lines.group.2.panel.1.1.1.1" points="65.11,59.6 65.49,59.6 65.88,59.6 66.26,59.61 66.65,59.64 67.03,59.72 67.42,59.92 67.8,60.38 68.19,61.35 68.57,63.24 68.96,66.57 69.34,71.92 69.73,79.75 70.11,90.18 70.5,102.85 70.89,116.96 71.27,131.42 71.66,145.12 72.04,157.17 72.43,167.04 72.81,174.52 73.2,179.69 73.58,182.78 73.97,184.13 74.35,184.02 74.74,182.72 75.12,180.43 75.51,177.33 75.89,173.63 76.28,169.54 76.66,165.24 77.05,160.86 77.43,156.53 77.82,152.33 78.2,148.31 78.59,144.49 78.97,140.84 79.36,137.37 79.74,134.05 80.13,130.9 80.51,127.9 80.9,125.04 81.28,122.3 81.67,119.67 82.05,117.14 82.44,114.7 82.82,112.36 83.21,110.14 83.6,108.08 83.98,106.21 84.37,104.52 84.75,102.95 85.14,101.45 85.52,99.99 85.91,98.57 86.29,97.21 86.68,95.91 87.06,94.69 87.45,93.54 87.83,92.48 88.22,91.5 88.6,90.61 88.99,89.77 89.37,88.97 89.76,88.2 90.14,87.43 90.53,86.67 90.91,85.91 91.3,85.14 91.68,84.38 92.07,83.63 92.45,82.91 92.84,82.24 93.22,81.61 93.61,81.03 93.99,80.48 94.38,79.95 94.76,79.44 95.15,78.93 95.53,78.41 95.92,77.89 96.31,77.38 96.69,76.91 97.08,76.51 97.46,76.16 97.85,75.84 98.23,75.52 98.62,75.18 99,74.8 99.39,74.41 99.77,74.04 100.16,73.68 100.54,73.36 100.93,73.05 101.31,72.75 101.7,72.46 102.08,72.19 102.47,71.93 102.85,71.68 103.24,71.45 103.62,71.22 104.01,70.97 104.39,70.73 104.78,70.48 105.16,70.23 105.55,69.99 105.93,69.74 106.32,69.5 106.7,69.27 107.09,69.06 107.47,68.89 107.86,68.74 108.24,68.6 108.63,68.48 109.01,68.36 109.4,68.24 109.79,68.1 110.17,67.94 110.56,67.77 110.94,67.6 111.33,67.44 111.71,67.3 112.1,67.17 112.48,67.06 112.87,66.94 113.25,66.81 113.64,66.67 114.02,66.55 114.41,66.45 114.79,66.37 115.18,66.29 115.56,66.2 115.95,66.09 116.33,65.98 116.72,65.87 117.1,65.77 117.49,65.68 117.87,65.59 118.26,65.49 118.64,65.38 119.03,65.25 119.41,65.12 119.8,65.01 120.18,64.9 120.57,64.8 120.95,64.7 121.34,64.63 121.72,64.58 122.11,64.56 122.5,64.54 122.88,64.53 123.27,64.5 123.65,64.43 124.04,64.33 124.42,64.2 124.81,64.07 125.19,63.95 125.58,63.87 125.96,63.8 126.35,63.75 126.73,63.69 127.12,63.61 127.5,63.51 127.89,63.4 128.27,63.31 128.66,63.24 129.04,63.2 129.43,63.2 129.81,63.2 130.2,63.2 130.58,63.2 130.97,63.18 131.35,63.14 131.74,63.1 132.12,63.04 132.51,62.97 132.89,62.88 133.28,62.79 133.66,62.72 134.05,62.65 134.43,62.61 134.82,62.57 135.2,62.54 135.59,62.51 135.98,62.47 136.36,62.44 136.75,62.4 137.13,62.37 137.52,62.34 137.9,62.31 138.29,62.29 138.67,62.27 139.06,62.25 139.44,62.23 139.83,62.23 140.21,62.21 140.6,62.19 140.98,62.16 141.37,62.12 141.75,62.07 142.14,62.03 142.52,61.99 142.91,61.96 143.29,61.93 143.68,61.9 144.06,61.88 144.45,61.85 144.83,61.83 145.22,61.81 145.6,61.78 145.99,61.76 146.37,61.73 146.76,61.71 147.14,61.69 147.53,61.66 147.91,61.63 148.3,61.6 148.69,61.58 149.07,61.56 149.46,61.55 149.84,61.55 150.23,61.55 150.61,61.54 151,61.53 151.38,61.51 151.77,61.5 152.15,61.48 152.54,61.47 152.92,61.45 153.31,61.42 153.69,61.38 154.08,61.33 154.46,61.28 154.85,61.24 155.23,61.21 155.62,61.19 156,61.19 156.39,61.18 156.77,61.17 157.16,61.15 157.54,61.11 157.93,61.08 158.31,61.05 158.7,61.04 159.08,61.03 159.47,61.03 159.85,61.02 160.24,61.02 160.62,61.02 161.01,61.02 161.4,61.01 161.78,61.01 162.17,61 162.55,60.99 162.94,60.98 163.32,60.98 163.71,60.97 164.09,60.96 164.48,60.94 164.86,60.92 165.25,60.9 165.63,60.88 166.02,60.87 166.4,60.85 166.79,60.84 167.17,60.81 167.56,60.79 167.94,60.77 168.33,60.77 168.71,60.77 169.1,60.78 169.48,60.77 169.87,60.75 170.25,60.72 170.64,60.7 171.02,60.67 171.41,60.66 171.79,60.65 172.18,60.64 172.56,60.63 172.95,60.61 173.33,60.59 173.72,60.58 174.1,60.58 174.49,60.58 174.88,60.58 175.26,60.58 175.65,60.57 176.03,60.56 176.42,60.55 176.8,60.54 177.19,60.52 177.57,60.51 177.96,60.5 178.34,60.5 178.73,60.51 179.11,60.53 179.5,60.54 179.88,60.55 180.27,60.55 180.65,60.54 181.04,60.51 181.42,60.49 181.81,60.47 182.19,60.44 182.58,60.43 182.96,60.42 183.35,60.41 183.73,60.41 184.12,60.41 184.5,60.42 184.89,60.42 185.27,60.42 185.66,60.41 186.04,60.41 186.43,60.4 186.81,60.38 187.2,60.37 187.59,60.36 187.97,60.35 188.36,60.35 188.74,60.36 189.13,60.37 189.51,60.38 189.9,60.37 190.28,60.37 190.67,60.36 191.05,60.35 191.44,60.34 191.82,60.33 192.21,60.32 192.59,60.31 192.98,60.3 193.36,60.29 193.75,60.28 194.13,60.27 194.52,60.26 194.9,60.25 195.29,60.26 195.67,60.26 196.06,60.26 196.44,60.25 196.83,60.23 197.21,60.22 197.6,60.2 197.98,60.19 198.37,60.17 198.75,60.16 199.14,60.16 199.52,60.16 199.91,60.17 200.29,60.19 200.68,60.21 201.07,60.22 201.45,60.22 201.84,60.22 202.22,60.21 202.61,60.21 202.99,60.2 203.38,60.2 203.76,60.19 204.15,60.18 204.53,60.17 204.92,60.16 205.3,60.15 205.69,60.14 206.07,60.13 206.46,60.13 206.84,60.12 207.23,60.12 207.61,60.12 208,60.12 208.38,60.11 208.77,60.11 209.15,60.1 209.54,60.1 209.92,60.09 210.31,60.09 210.69,60.08 211.08,60.08 211.46,60.08 211.85,60.09 212.23,60.09 212.62,60.09 213,60.09 213.39,60.07 213.78,60.06 214.16,60.04 214.55,60.02 214.93,60 215.32,59.99 215.7,59.98 216.09,59.98 216.47,59.99 216.86,60.01 217.24,60.03 217.63,60.04 218.01,60.05 218.4,60.05 218.78,60.04 219.17,60.03 219.55,60.02 219.94,60.01 220.32,60 220.71,59.99 221.09,59.98 221.48,59.96 221.86,59.95 222.25,59.95 222.63,59.96 223.02,59.97 223.4,59.98 223.79,59.98 224.17,59.99 224.56,59.99 224.94,60 225.33,60.01 225.71,60.02 226.1,60.01 226.49,60 226.87,59.99 227.26,59.98 227.64,59.97 228.03,59.97 228.41,59.98 228.8,59.98 229.18,59.99 229.57,60 229.95,59.99 230.34,59.98 230.72,59.96 231.11,59.94 231.49,59.92 231.88,59.91 232.26,59.91 232.65,59.92 233.03,59.92 233.42,59.93 233.8,59.93 234.19,59.93 234.57,59.93 234.96,59.92 235.34,59.92 235.73,59.91 236.11,59.92 236.5,59.92 236.88,59.93 237.27,59.93 237.65,59.93 238.04,59.93 238.42,59.92 238.81,59.92 239.19,59.92 239.58,59.91 239.97,59.9 240.35,59.89 240.74,59.87 241.12,59.86 241.51,59.85 241.89,59.84 242.28,59.84 242.66,59.83 243.05,59.83 243.43,59.83 243.82,59.83 244.2,59.84 244.59,59.84 244.97,59.85 245.36,59.85 245.74,59.86 246.13,59.86 246.51,59.87 246.9,59.87 247.28,59.87 247.67,59.87 248.05,59.88 248.44,59.88 248.82,59.89 249.21,59.89 249.59,59.9 249.98,59.9 250.36,59.91 250.75,59.91 251.13,59.92 251.52,59.91 251.9,59.9 252.29,59.89 252.68,59.87 253.06,59.86 253.45,59.85 253.83,59.84 254.22,59.84 254.6,59.84 254.99,59.84 255.37,59.84 255.76,59.84 256.14,59.85 256.53,59.85 256.91,59.85 257.3,59.85 257.68,59.84 258.07,59.82 258.45,59.79 258.84,59.75 259.22,59.72 259.61,59.68 259.99,59.65 260.38,59.62 260.76,59.61 261.15,59.6 261.53,59.6 261.92,59.6" stroke-dasharray="none" stroke="rgb(31,120,180)" stroke-width="0.75" opacity="1" stroke-opacity="1" fill="none"/>
          </g>
          <g id="Fig:densplot_01.xyplot.lines.group.3.panel.1.1.1">
            <polyline id="Fig:densplot_01.xyplot.lines.group.3.panel.1.1.1.1" points="65.42,59.6 65.81,59.6 66.19,59.6 66.58,59.6 66.96,59.62 67.35,59.66 67.73,59.77 68.11,60.03 68.5,60.6 68.88,61.75 69.27,63.9 69.65,67.6 70.03,73.42 70.42,81.76 70.8,92.68 71.19,105.78 71.57,120.22 71.96,134.88 72.34,148.64 72.72,160.63 73.11,170.36 73.49,177.65 73.88,182.61 74.26,185.51 74.64,186.69 75.03,186.46 75.41,185.11 75.8,182.87 76.18,179.92 76.57,176.36 76.95,172.32 77.33,167.89 77.72,163.25 78.1,158.55 78.49,153.93 78.87,149.47 79.25,145.21 79.64,141.19 80.02,137.46 80.41,134.02 80.79,130.84 81.18,127.85 81.56,124.99 81.94,122.23 82.33,119.62 82.71,117.19 83.1,114.95 83.48,112.87 83.87,110.87 84.25,108.9 84.63,106.97 85.02,105.13 85.4,103.42 85.79,101.87 86.17,100.42 86.55,99.03 86.94,97.66 87.32,96.29 87.71,94.94 88.09,93.63 88.48,92.38 88.86,91.23 89.24,90.21 89.63,89.3 90.01,88.48 90.4,87.71 90.78,86.96 91.16,86.23 91.55,85.51 91.93,84.82 92.32,84.12 92.7,83.43 93.09,82.74 93.47,82.08 93.85,81.42 94.24,80.77 94.62,80.1 95.01,79.44 95.39,78.8 95.77,78.22 96.16,77.69 96.54,77.23 96.93,76.81 97.31,76.42 97.7,76.05 98.08,75.69 98.46,75.33 98.85,74.95 99.23,74.56 99.62,74.17 100,73.79 100.38,73.43 100.77,73.1 101.15,72.8 101.54,72.5 101.92,72.22 102.31,71.93 102.69,71.67 103.07,71.43 103.46,71.24 103.84,71.08 104.23,70.92 104.61,70.74 105,70.54 105.38,70.31 105.76,70.08 106.15,69.86 106.53,69.65 106.92,69.43 107.3,69.2 107.68,68.97 108.07,68.74 108.45,68.55 108.84,68.37 109.22,68.22 109.61,68.06 109.99,67.9 110.37,67.74 110.76,67.59 111.14,67.45 111.53,67.31 111.91,67.18 112.29,67.05 112.68,66.91 113.06,66.78 113.45,66.66 113.83,66.52 114.22,66.38 114.6,66.24 114.98,66.1 115.37,65.98 115.75,65.86 116.14,65.73 116.52,65.61 116.9,65.49 117.29,65.39 117.67,65.32 118.06,65.26 118.44,65.19 118.83,65.11 119.21,65.01 119.59,64.91 119.98,64.81 120.36,64.71 120.75,64.59 121.13,64.48 121.51,64.39 121.9,64.32 122.28,64.28 122.67,64.26 123.05,64.23 123.44,64.2 123.82,64.13 124.2,64.05 124.59,63.94 124.97,63.83 125.36,63.73 125.74,63.65 126.13,63.58 126.51,63.52 126.89,63.48 127.28,63.45 127.66,63.42 128.05,63.38 128.43,63.32 128.81,63.26 129.2,63.18 129.58,63.11 129.97,63.07 130.35,63.05 130.74,63.04 131.12,63.04 131.5,63.01 131.89,62.96 132.27,62.88 132.66,62.81 133.04,62.74 133.42,62.7 133.81,62.68 134.19,62.67 134.58,62.65 134.96,62.61 135.35,62.55 135.73,62.49 136.11,62.42 136.5,62.36 136.88,62.3 137.27,62.25 137.65,62.21 138.03,62.17 138.42,62.13 138.8,62.1 139.19,62.08 139.57,62.05 139.96,62.03 140.34,62.02 140.72,62 141.11,61.97 141.49,61.94 141.88,61.89 142.26,61.85 142.65,61.82 143.03,61.8 143.41,61.8 143.8,61.82 144.18,61.83 144.57,61.83 144.95,61.82 145.33,61.78 145.72,61.74 146.1,61.7 146.49,61.66 146.87,61.64 147.26,61.63 147.64,61.63 148.02,61.64 148.41,61.63 148.79,61.61 149.18,61.55 149.56,61.48 149.94,61.41 150.33,61.36 150.71,61.32 151.1,61.31 151.48,61.3 151.87,61.3 152.25,61.31 152.63,61.31 153.02,61.31 153.4,61.29 153.79,61.26 154.17,61.22 154.55,61.18 154.94,61.15 155.32,61.13 155.71,61.12 156.09,61.11 156.48,61.1 156.86,61.09 157.24,61.08 157.63,61.06 158.01,61.05 158.4,61.04 158.78,61.04 159.16,61.05 159.55,61.06 159.93,61.06 160.32,61.04 160.7,61.01 161.09,60.97 161.47,60.93 161.85,60.89 162.24,60.87 162.62,60.85 163.01,60.85 163.39,60.86 163.78,60.86 164.16,60.85 164.54,60.8 164.93,60.75 165.31,60.69 165.7,60.65 166.08,60.62 166.46,60.61 166.85,60.62 167.23,60.64 167.62,60.66 168,60.68 168.39,60.7 168.77,60.7 169.15,60.7 169.54,60.68 169.92,60.67 170.31,60.64 170.69,60.62 171.07,60.6 171.46,60.58 171.84,60.58 172.23,60.59 172.61,60.61 173,60.62 173.38,60.62 173.76,60.6 174.15,60.56 174.53,60.52 174.92,60.49 175.3,60.46 175.68,60.45 176.07,60.46 176.45,60.47 176.84,60.48 177.22,60.49 177.61,60.49 177.99,60.49 178.37,60.49 178.76,60.48 179.14,60.47 179.53,60.45 179.91,60.43 180.29,60.42 180.68,60.41 181.06,60.41 181.45,60.41 181.83,60.41 182.22,60.41 182.6,60.4 182.98,60.38 183.37,60.37 183.75,60.35 184.14,60.34 184.52,60.33 184.91,60.34 185.29,60.35 185.67,60.35 186.06,60.35 186.44,60.34 186.83,60.33 187.21,60.32 187.59,60.31 187.98,60.3 188.36,60.29 188.75,60.28 189.13,60.27 189.52,60.27 189.9,60.26 190.28,60.26 190.67,60.26 191.05,60.26 191.44,60.25 191.82,60.25 192.2,60.24 192.59,60.22 192.97,60.21 193.36,60.2 193.74,60.2 194.13,60.2 194.51,60.21 194.89,60.21 195.28,60.21 195.66,60.21 196.05,60.22 196.43,60.22 196.81,60.21 197.2,60.21 197.58,60.19 197.97,60.17 198.35,60.14 198.74,60.13 199.12,60.12 199.5,60.13 199.89,60.14 200.27,60.15 200.66,60.16 201.04,60.15 201.42,60.14 201.81,60.14 202.19,60.13 202.58,60.12 202.96,60.11 203.35,60.11 203.73,60.1 204.11,60.1 204.5,60.1 204.88,60.11 205.27,60.11 205.65,60.11 206.04,60.1 206.42,60.09 206.8,60.07 207.19,60.06 207.57,60.05 207.96,60.04 208.34,60.04 208.72,60.04 209.11,60.04 209.49,60.04 209.88,60.04 210.26,60.04 210.65,60.05 211.03,60.05 211.41,60.05 211.8,60.05 212.18,60.05 212.57,60.05 212.95,60.06 213.33,60.07 213.72,60.07 214.1,60.07 214.49,60.06 214.87,60.04 215.26,60.03 215.64,60.02 216.02,60.01 216.41,60 216.79,59.99 217.18,59.99 217.56,59.99 217.94,60 218.33,60 218.71,60 219.1,60 219.48,60 219.87,60.01 220.25,60.01 220.63,60.01 221.02,60.01 221.4,60.01 221.79,60.01 222.17,60.01 222.55,60 222.94,60 223.32,60 223.71,60 224.09,60 224.48,60 224.86,59.99 225.24,59.98 225.63,59.97 226.01,59.97 226.4,59.96 226.78,59.97 227.17,59.97 227.55,59.97 227.93,59.97 228.32,59.97 228.7,59.97 229.09,59.96 229.47,59.96 229.85,59.95 230.24,59.94 230.62,59.93 231.01,59.93 231.39,59.92 231.78,59.91 232.16,59.9 232.54,59.89 232.93,59.89 233.31,59.9 233.7,59.9 234.08,59.9 234.46,59.9 234.85,59.89 235.23,59.88 235.62,59.87 236,59.87 236.39,59.87 236.77,59.88 237.15,59.88 237.54,59.89 237.92,59.88 238.31,59.88 238.69,59.88 239.07,59.89 239.46,59.9 239.84,59.91 240.23,59.91 240.61,59.9 241,59.89 241.38,59.88 241.76,59.86 242.15,59.85 242.53,59.85 242.92,59.85 243.3,59.86 243.68,59.87 244.07,59.87 244.45,59.87 244.84,59.87 245.22,59.87 245.61,59.88 245.99,59.9 246.37,59.91 246.76,59.92 247.14,59.92 247.53,59.92 247.91,59.9 248.3,59.89 248.68,59.87 249.06,59.86 249.45,59.85 249.83,59.84 250.22,59.83 250.6,59.82 250.98,59.82 251.37,59.82 251.75,59.82 252.14,59.82 252.52,59.83 252.91,59.83 253.29,59.83 253.67,59.83 254.06,59.82 254.44,59.81 254.83,59.81 255.21,59.8 255.59,59.8 255.98,59.81 256.36,59.81 256.75,59.81 257.13,59.8 257.52,59.8 257.9,59.79 258.28,59.78 258.67,59.76 259.05,59.73 259.44,59.69 259.82,59.66 260.2,59.63 260.59,59.61 260.97,59.6 261.36,59.6 261.74,59.6" stroke-dasharray="none" stroke="rgb(31,120,180)" stroke-width="0.75" opacity="1" stroke-opacity="1" fill="none"/>
          </g>
          <g id="Fig:densplot_01.xyplot.lines.group.4.panel.1.1.1">
            <polyline id="Fig:densplot_01.xyplot.lines.group.4.panel.1.1.1.1" points="64.85,59.6 65.23,59.6 65.62,59.61 66,59.64 66.39,59.72 66.77,59.94 67.16,60.46 67.54,61.61 67.93,64.01 68.31,68.56 68.69,76.27 69.08,87.88 69.46,103.35 69.85,121.67 70.23,141.1 70.62,159.69 71,175.78 71.39,188.36 71.77,197.15 72.16,202.44 72.54,204.83 72.93,204.97 73.31,203.39 73.7,200.44 74.08,196.35 74.47,191.38 74.85,185.78 75.24,179.8 75.62,173.69 76.01,167.65 76.39,161.82 76.78,156.29 77.16,151.12 77.55,146.34 77.93,141.95 78.32,137.9 78.7,134.12 79.09,130.55 79.47,127.15 79.86,123.91 80.24,120.83 80.63,117.89 81.01,115.1 81.4,112.46 81.78,110.02 82.17,107.8 82.55,105.81 82.94,103.99 83.32,102.25 83.71,100.53 84.09,98.85 84.48,97.31 84.86,95.95 85.25,94.74 85.63,93.57 86.02,92.35 86.4,91.09 86.79,89.88 87.17,88.75 87.56,87.7 87.94,86.76 88.32,85.91 88.71,85.13 89.09,84.36 89.48,83.56 89.86,82.75 90.25,81.97 90.63,81.25 91.02,80.6 91.4,80.03 91.79,79.51 92.17,79.01 92.56,78.49 92.94,77.94 93.33,77.34 93.71,76.74 94.1,76.16 94.48,75.63 94.87,75.15 95.25,74.72 95.64,74.33 96.02,73.97 96.41,73.67 96.79,73.42 97.18,73.2 97.56,72.98 97.95,72.73 98.33,72.44 98.72,72.1 99.1,71.74 99.49,71.38 99.87,71.06 100.26,70.79 100.64,70.58 101.03,70.39 101.41,70.18 101.8,69.92 102.18,69.62 102.57,69.34 102.95,69.1 103.34,68.89 103.72,68.68 104.11,68.46 104.49,68.22 104.88,68.01 105.26,67.85 105.65,67.75 106.03,67.68 106.42,67.61 106.8,67.5 107.19,67.37 107.57,67.21 107.95,67.04 108.34,66.87 108.72,66.7 109.11,66.55 109.49,66.43 109.88,66.35 110.26,66.29 110.65,66.21 111.03,66.09 111.42,65.93 111.8,65.76 112.19,65.62 112.57,65.52 112.96,65.46 113.34,65.39 113.73,65.3 114.11,65.18 114.5,65.04 114.88,64.89 115.27,64.75 115.65,64.62 116.04,64.51 116.42,64.43 116.81,64.36 117.19,64.3 117.58,64.25 117.96,64.2 118.35,64.15 118.73,64.1 119.12,64.05 119.5,63.99 119.89,63.92 120.27,63.83 120.66,63.73 121.04,63.64 121.43,63.57 121.81,63.52 122.2,63.47 122.58,63.42 122.97,63.36 123.35,63.32 123.74,63.29 124.12,63.25 124.51,63.18 124.89,63.1 125.28,63.03 125.66,62.98 126.05,62.95 126.43,62.94 126.82,62.91 127.2,62.86 127.58,62.8 127.97,62.75 128.35,62.71 128.74,62.66 129.12,62.6 129.51,62.54 129.89,62.49 130.28,62.46 130.66,62.44 131.05,62.41 131.43,62.36 131.82,62.29 132.2,62.22 132.59,62.17 132.97,62.16 133.36,62.19 133.74,62.22 134.13,62.22 134.51,62.19 134.9,62.13 135.28,62.07 135.67,62.03 136.05,62.01 136.44,62.01 136.82,62 137.21,61.99 137.59,61.98 137.98,61.96 138.36,61.93 138.75,61.9 139.13,61.85 139.52,61.8 139.9,61.75 140.29,61.72 140.67,61.69 141.06,61.66 141.44,61.63 141.83,61.61 142.21,61.58 142.6,61.53 142.98,61.49 143.37,61.45 143.75,61.41 144.14,61.38 144.52,61.34 144.91,61.31 145.29,61.3 145.68,61.3 146.06,61.31 146.45,61.31 146.83,61.31 147.21,61.28 147.6,61.26 147.98,61.23 148.37,61.21 148.75,61.18 149.14,61.16 149.52,61.15 149.91,61.16 150.29,61.17 150.68,61.18 151.06,61.18 151.45,61.15 151.83,61.12 152.22,61.07 152.6,61.02 152.99,60.99 153.37,60.98 153.76,60.98 154.14,61 154.53,61.01 154.91,61.02 155.3,61.01 155.68,60.99 156.07,60.96 156.45,60.93 156.84,60.89 157.22,60.86 157.61,60.83 157.99,60.81 158.38,60.8 158.76,60.79 159.15,60.79 159.53,60.77 159.92,60.76 160.3,60.75 160.69,60.76 161.07,60.77 161.46,60.78 161.84,60.79 162.23,60.8 162.61,60.81 163,60.81 163.38,60.81 163.77,60.8 164.15,60.79 164.54,60.78 164.92,60.78 165.31,60.77 165.69,60.75 166.08,60.73 166.46,60.71 166.85,60.69 167.23,60.68 167.61,60.68 168,60.69 168.38,60.69 168.77,60.69 169.15,60.68 169.54,60.67 169.92,60.65 170.31,60.63 170.69,60.59 171.08,60.56 171.46,60.52 171.85,60.5 172.23,60.49 172.62,60.49 173,60.49 173.39,60.47 173.77,60.45 174.16,60.41 174.54,60.38 174.93,60.38 175.31,60.39 175.7,60.42 176.08,60.44 176.47,60.45 176.85,60.44 177.24,60.43 177.62,60.41 178.01,60.4 178.39,60.4 178.78,60.4 179.16,60.41 179.55,60.43 179.93,60.45 180.32,60.47 180.7,60.47 181.09,60.45 181.47,60.42 181.86,60.37 182.24,60.33 182.63,60.31 183.01,60.3 183.4,60.31 183.78,60.33 184.17,60.35 184.55,60.37 184.94,60.38 185.32,60.38 185.71,60.38 186.09,60.38 186.48,60.38 186.86,60.36 187.24,60.35 187.63,60.33 188.01,60.31 188.4,60.3 188.78,60.28 189.17,60.25 189.55,60.23 189.94,60.21 190.32,60.2 190.71,60.2 191.09,60.19 191.48,60.18 191.86,60.18 192.25,60.18 192.63,60.18 193.02,60.18 193.4,60.19 193.79,60.19 194.17,60.18 194.56,60.18 194.94,60.17 195.33,60.18 195.71,60.19 196.1,60.2 196.48,60.22 196.87,60.24 197.25,60.26 197.64,60.28 198.02,60.28 198.41,60.27 198.79,60.25 199.18,60.23 199.56,60.22 199.95,60.22 200.33,60.22 200.72,60.21 201.1,60.19 201.49,60.16 201.87,60.12 202.26,60.1 202.64,60.09 203.03,60.1 203.41,60.12 203.8,60.13 204.18,60.13 204.57,60.13 204.95,60.13 205.34,60.12 205.72,60.11 206.11,60.09 206.49,60.09 206.87,60.09 207.26,60.11 207.64,60.12 208.03,60.13 208.41,60.12 208.8,60.1 209.18,60.08 209.57,60.07 209.95,60.06 210.34,60.06 210.72,60.06 211.11,60.06 211.49,60.05 211.88,60.04 212.26,60.02 212.65,60.01 213.03,60 213.42,59.99 213.8,59.99 214.19,59.98 214.57,59.97 214.96,59.97 215.34,59.97 215.73,59.98 216.11,59.98 216.5,59.98 216.88,59.98 217.27,59.99 217.65,59.99 218.04,60 218.42,60.01 218.81,60.02 219.19,60.02 219.58,60.02 219.96,60.01 220.35,60.01 220.73,60.01 221.12,60.01 221.5,60.01 221.89,60 222.27,59.98 222.66,59.97 223.04,59.97 223.43,59.98 223.81,59.99 224.2,59.99 224.58,59.99 224.97,59.99 225.35,59.98 225.74,59.98 226.12,59.97 226.5,59.97 226.89,59.96 227.27,59.96 227.66,59.97 228.04,59.97 228.43,59.96 228.81,59.95 229.2,59.93 229.58,59.92 229.97,59.91 230.35,59.89 230.74,59.88 231.12,59.87 231.51,59.87 231.89,59.88 232.28,59.89 232.66,59.9 233.05,59.91 233.43,59.91 233.82,59.91 234.2,59.91 234.59,59.91 234.97,59.92 235.36,59.92 235.74,59.92 236.13,59.91 236.51,59.9 236.9,59.9 237.28,59.89 237.67,59.89 238.05,59.89 238.44,59.88 238.82,59.87 239.21,59.86 239.59,59.86 239.98,59.85 240.36,59.85 240.75,59.85 241.13,59.84 241.52,59.84 241.9,59.84 242.29,59.85 242.67,59.86 243.06,59.87 243.44,59.87 243.83,59.87 244.21,59.86 244.6,59.86 244.98,59.86 245.37,59.85 245.75,59.85 246.13,59.86 246.52,59.87 246.9,59.88 247.29,59.89 247.67,59.88 248.06,59.87 248.44,59.85 248.83,59.83 249.21,59.83 249.6,59.83 249.98,59.84 250.37,59.85 250.75,59.85 251.14,59.85 251.52,59.84 251.91,59.83 252.29,59.83 252.68,59.83 253.06,59.83 253.45,59.83 253.83,59.84 254.22,59.84 254.6,59.84 254.99,59.85 255.37,59.85 255.76,59.86 256.14,59.86 256.53,59.86 256.91,59.84 257.3,59.83 257.68,59.82 258.07,59.81 258.45,59.79 258.84,59.76 259.22,59.72 259.61,59.68 259.99,59.64 260.38,59.62 260.76,59.6 261.15,59.6 261.53,59.6" stroke-dasharray="none" stroke="rgb(31,120,180)" stroke-width="0.75" opacity="1" stroke-opacity="1" fill="none"/>
          </g>
          <g id="Fig:densplot_01.xyplot.lines.group.5.panel.1.1.1">
            <polyline id="Fig:densplot_01.xyplot.lines.group.5.panel.1.1.1.1" points="65.52,59.6 65.9,59.6 66.28,59.63 66.67,59.72 67.05,60.02 67.43,60.87 67.82,62.96 68.2,67.45 68.58,75.82 68.97,89.39 69.35,108.5 69.73,131.92 70.12,156.97 70.5,180.38 70.88,199.46 71.27,212.78 71.65,220.2 72.03,222.59 72.42,221.25 72.8,217.26 73.18,211.52 73.57,204.73 73.95,197.49 74.33,190.2 74.72,183.11 75.1,176.29 75.48,169.72 75.87,163.39 76.25,157.34 76.64,151.66 77.02,146.44 77.4,141.69 77.79,137.35 78.17,133.38 78.55,129.74 78.94,126.35 79.32,123.14 79.7,120.04 80.09,117.1 80.47,114.41 80.85,111.97 81.24,109.71 81.62,107.55 82,105.45 82.39,103.46 82.77,101.66 83.15,100.05 83.54,98.58 83.92,97.18 84.3,95.77 84.69,94.33 85.07,92.92 85.45,91.61 85.84,90.44 86.22,89.43 86.6,88.53 86.99,87.69 87.37,86.82 87.75,85.89 88.14,84.98 88.52,84.14 88.9,83.4 89.29,82.73 89.67,82.06 90.05,81.4 90.44,80.74 90.82,80.12 91.21,79.52 91.59,78.93 91.97,78.31 92.36,77.67 92.74,77.05 93.12,76.5 93.51,76.03 93.89,75.64 94.27,75.29 94.66,74.96 95.04,74.64 95.42,74.3 95.81,73.92 96.19,73.51 96.57,73.13 96.96,72.81 97.34,72.53 97.72,72.27 98.11,71.98 98.49,71.66 98.87,71.33 99.26,71.02 99.64,70.76 100.02,70.54 100.41,70.33 100.79,70.12 101.17,69.9 101.56,69.65 101.94,69.39 102.32,69.15 102.71,68.94 103.09,68.76 103.47,68.61 103.86,68.46 104.24,68.27 104.63,68.07 105.01,67.84 105.39,67.61 105.78,67.39 106.16,67.2 106.54,67.05 106.93,66.93 107.31,66.81 107.69,66.67 108.08,66.53 108.46,66.41 108.84,66.32 109.23,66.25 109.61,66.18 109.99,66.08 110.38,65.95 110.76,65.79 111.14,65.63 111.53,65.5 111.91,65.41 112.29,65.33 112.68,65.23 113.06,65.11 113.44,64.97 113.83,64.83 114.21,64.7 114.59,64.58 114.98,64.46 115.36,64.37 115.74,64.28 116.13,64.22 116.51,64.16 116.89,64.12 117.28,64.1 117.66,64.07 118.04,64.05 118.43,64.03 118.81,64 119.2,63.95 119.58,63.87 119.96,63.76 120.35,63.64 120.73,63.53 121.11,63.43 121.5,63.35 121.88,63.29 122.26,63.24 122.65,63.18 123.03,63.13 123.41,63.07 123.8,63.01 124.18,62.97 124.56,62.95 124.95,62.93 125.33,62.89 125.71,62.82 126.1,62.73 126.48,62.65 126.86,62.59 127.25,62.55 127.63,62.52 128.01,62.49 128.4,62.46 128.78,62.44 129.16,62.43 129.55,62.41 129.93,62.38 130.31,62.34 130.7,62.29 131.08,62.24 131.46,62.19 131.85,62.15 132.23,62.12 132.62,62.12 133,62.14 133.38,62.14 133.77,62.13 134.15,62.09 134.53,62.04 134.92,61.99 135.3,61.94 135.68,61.86 136.07,61.78 136.45,61.7 136.83,61.65 137.22,61.62 137.6,61.6 137.98,61.59 138.37,61.57 138.75,61.57 139.13,61.57 139.52,61.56 139.9,61.55 140.28,61.52 140.67,61.48 141.05,61.43 141.43,61.36 141.82,61.29 142.2,61.24 142.58,61.23 142.97,61.25 143.35,61.29 143.73,61.3 144.12,61.3 144.5,61.29 144.88,61.29 145.27,61.3 145.65,61.31 146.03,61.31 146.42,61.28 146.8,61.26 147.19,61.23 147.57,61.21 147.95,61.2 148.34,61.17 148.72,61.12 149.1,61.07 149.49,61.02 149.87,60.99 150.25,60.97 150.64,60.97 151.02,60.97 151.4,60.99 151.79,61 152.17,61.03 152.55,61.04 152.94,61.05 153.32,61.05 153.7,61.02 154.09,60.98 154.47,60.93 154.85,60.88 155.24,60.84 155.62,60.81 156,60.77 156.39,60.75 156.77,60.74 157.15,60.74 157.54,60.76 157.92,60.78 158.3,60.79 158.69,60.79 159.07,60.78 159.45,60.76 159.84,60.73 160.22,60.71 160.61,60.69 160.99,60.69 161.37,60.68 161.76,60.68 162.14,60.67 162.52,60.65 162.91,60.63 163.29,60.6 163.67,60.57 164.06,60.55 164.44,60.56 164.82,60.58 165.21,60.59 165.59,60.59 165.97,60.56 166.36,60.52 166.74,60.49 167.12,60.46 167.51,60.45 167.89,60.46 168.27,60.47 168.66,60.48 169.04,60.49 169.42,60.48 169.81,60.47 170.19,60.46 170.57,60.43 170.96,60.41 171.34,60.4 171.72,60.4 172.11,60.41 172.49,60.41 172.87,60.42 173.26,60.42 173.64,60.41 174.03,60.4 174.41,60.39 174.79,60.38 175.18,60.38 175.56,60.38 175.94,60.37 176.33,60.36 176.71,60.35 177.09,60.34 177.48,60.33 177.86,60.32 178.24,60.32 178.63,60.32 179.01,60.32 179.39,60.31 179.78,60.29 180.16,60.26 180.54,60.23 180.93,60.21 181.31,60.21 181.69,60.22 182.08,60.23 182.46,60.24 182.84,60.24 183.23,60.23 183.61,60.22 183.99,60.22 184.38,60.24 184.76,60.27 185.14,60.29 185.53,60.3 185.91,60.29 186.29,60.28 186.68,60.27 187.06,60.27 187.44,60.27 187.83,60.26 188.21,60.24 188.6,60.2 188.98,60.17 189.36,60.15 189.75,60.14 190.13,60.14 190.51,60.14 190.9,60.14 191.28,60.14 191.66,60.14 192.05,60.14 192.43,60.13 192.81,60.12 193.2,60.11 193.58,60.1 193.96,60.09 194.35,60.08 194.73,60.07 195.11,60.06 195.5,60.06 195.88,60.06 196.26,60.07 196.65,60.08 197.03,60.1 197.41,60.11 197.8,60.13 198.18,60.13 198.56,60.13 198.95,60.12 199.33,60.1 199.71,60.08 200.1,60.06 200.48,60.06 200.86,60.07 201.25,60.08 201.63,60.08 202.02,60.08 202.4,60.06 202.78,60.04 203.17,60.02 203.55,60 203.93,59.99 204.32,59.98 204.7,59.98 205.08,59.97 205.47,59.97 205.85,59.98 206.23,59.98 206.62,59.99 207,60 207.38,60 207.77,60 208.15,60.01 208.53,60.02 208.92,60.02 209.3,60.01 209.68,59.99 210.07,59.97 210.45,59.97 210.83,59.96 211.22,59.97 211.6,59.97 211.98,59.97 212.37,59.97 212.75,59.97 213.13,59.96 213.52,59.94 213.9,59.93 214.28,59.92 214.67,59.92 215.05,59.93 215.43,59.94 215.82,59.95 216.2,59.94 216.59,59.93 216.97,59.92 217.35,59.92 217.74,59.91 218.12,59.89 218.5,59.88 218.89,59.87 219.27,59.87 219.65,59.88 220.04,59.89 220.42,59.89 220.8,59.89 221.19,59.89 221.57,59.89 221.95,59.89 222.34,59.89 222.72,59.88 223.1,59.89 223.49,59.9 223.87,59.93 224.25,59.96 224.64,59.98 225.02,59.98 225.4,59.97 225.79,59.94 226.17,59.92 226.55,59.9 226.94,59.89 227.32,59.89 227.7,59.89 228.09,59.88 228.47,59.87 228.85,59.86 229.24,59.85 229.62,59.84 230.01,59.85 230.39,59.86 230.77,59.88 231.16,59.9 231.54,59.91 231.92,59.92 232.31,59.92 232.69,59.91 233.07,59.91 233.46,59.9 233.84,59.9 234.22,59.91 234.61,59.91 234.99,59.92 235.37,59.91 235.76,59.9 236.14,59.89 236.52,59.88 236.91,59.87 237.29,59.88 237.67,59.88 238.06,59.88 238.44,59.87 238.82,59.86 239.21,59.85 239.59,59.86 239.97,59.87 240.36,59.89 240.74,59.9 241.12,59.9 241.51,59.88 241.89,59.86 242.27,59.84 242.66,59.83 243.04,59.82 243.42,59.81 243.81,59.81 244.19,59.81 244.58,59.81 244.96,59.82 245.34,59.82 245.73,59.82 246.11,59.81 246.49,59.8 246.88,59.79 247.26,59.78 247.64,59.77 248.03,59.77 248.41,59.77 248.79,59.78 249.18,59.79 249.56,59.81 249.94,59.83 250.33,59.84 250.71,59.84 251.09,59.84 251.48,59.83 251.86,59.81 252.24,59.8 252.63,59.8 253.01,59.8 253.39,59.8 253.78,59.8 254.16,59.79 254.54,59.79 254.93,59.79 255.31,59.8 255.69,59.81 256.08,59.81 256.46,59.8 256.84,59.79 257.23,59.77 257.61,59.77 258,59.77 258.38,59.77 258.76,59.75 259.15,59.72 259.53,59.67 259.91,59.64 260.3,59.62 260.68,59.6 261.06,59.6 261.45,59.6" stroke-dasharray="none" stroke="rgb(31,120,180)" stroke-width="0.75" opacity="1" stroke-opacity="1" fill="none"/>
          </g>
          <g id="Fig:densplot_01.xyplot.lines.group.6.panel.1.1.1">
            <polyline id="Fig:densplot_01.xyplot.lines.group.6.panel.1.1.1.1" points="64.63,59.6 65.02,59.6 65.4,59.6 65.79,59.61 66.18,59.63 66.56,59.69 66.95,59.81 67.34,60.09 67.72,60.64 68.11,61.69 68.5,63.56 68.88,66.68 69.27,71.53 69.66,78.5 70.04,87.75 70.43,99.11 70.82,111.96 71.2,125.43 71.59,138.51 71.98,150.3 72.36,160.2 72.75,167.86 73.14,173.21 73.52,176.48 73.91,177.92 74.3,177.87 74.68,176.62 75.07,174.47 75.46,171.63 75.84,168.28 76.23,164.56 76.62,160.61 77,156.55 77.39,152.47 77.78,148.47 78.16,144.57 78.55,140.84 78.94,137.29 79.32,133.98 79.71,130.9 80.09,128.05 80.48,125.37 80.87,122.84 81.25,120.43 81.64,118.15 82.03,116.04 82.41,114.09 82.8,112.27 83.19,110.54 83.57,108.84 83.96,107.13 84.35,105.43 84.73,103.77 85.12,102.18 85.51,100.67 85.89,99.25 86.28,97.91 86.67,96.66 87.05,95.5 87.44,94.43 87.83,93.42 88.21,92.47 88.6,91.55 88.99,90.62 89.37,89.69 89.76,88.78 90.15,87.91 90.53,87.11 90.92,86.38 91.31,85.74 91.69,85.15 92.08,84.6 92.47,84.04 92.85,83.44 93.24,82.8 93.62,82.13 94.01,81.47 94.4,80.84 94.78,80.26 95.17,79.71 95.56,79.19 95.94,78.7 96.33,78.25 96.72,77.84 97.1,77.46 97.49,77.11 97.88,76.79 98.26,76.46 98.65,76.11 99.04,75.74 99.42,75.36 99.81,74.97 100.2,74.58 100.58,74.21 100.97,73.85 101.36,73.53 101.74,73.24 102.13,72.97 102.52,72.73 102.9,72.49 103.29,72.26 103.68,72.01 104.06,71.75 104.45,71.47 104.84,71.18 105.22,70.89 105.61,70.63 106,70.4 106.38,70.19 106.77,69.99 107.16,69.79 107.54,69.6 107.93,69.41 108.31,69.24 108.7,69.08 109.09,68.93 109.47,68.77 109.86,68.61 110.25,68.44 110.63,68.27 111.02,68.11 111.41,67.96 111.79,67.82 112.18,67.69 112.57,67.56 112.95,67.43 113.34,67.29 113.73,67.15 114.11,67.01 114.5,66.89 114.89,66.78 115.27,66.69 115.66,66.61 116.05,66.51 116.43,66.4 116.82,66.28 117.21,66.17 117.59,66.08 117.98,66 118.37,65.93 118.75,65.85 119.14,65.77 119.53,65.67 119.91,65.56 120.3,65.44 120.69,65.32 121.07,65.2 121.46,65.09 121.84,64.99 122.23,64.91 122.62,64.84 123,64.79 123.39,64.75 123.78,64.7 124.16,64.65 124.55,64.59 124.94,64.53 125.32,64.47 125.71,64.4 126.1,64.32 126.48,64.23 126.87,64.13 127.26,64.03 127.64,63.93 128.03,63.84 128.42,63.75 128.8,63.68 129.19,63.62 129.58,63.58 129.96,63.53 130.35,63.49 130.74,63.43 131.12,63.38 131.51,63.32 131.9,63.27 132.28,63.23 132.67,63.2 133.06,63.18 133.44,63.17 133.83,63.14 134.22,63.1 134.6,63.04 134.99,62.98 135.38,62.91 135.76,62.86 136.15,62.82 136.53,62.8 136.92,62.78 137.31,62.77 137.69,62.76 138.08,62.73 138.47,62.68 138.85,62.62 139.24,62.57 139.63,62.52 140.01,62.49 140.4,62.47 140.79,62.46 141.17,62.44 141.56,62.41 141.95,62.36 142.33,62.3 142.72,62.24 143.11,62.19 143.49,62.14 143.88,62.1 144.27,62.07 144.65,62.06 145.04,62.04 145.43,62.02 145.81,62 146.2,61.96 146.59,61.92 146.97,61.89 147.36,61.87 147.75,61.86 148.13,61.86 148.52,61.85 148.91,61.83 149.29,61.8 149.68,61.76 150.07,61.72 150.45,61.69 150.84,61.67 151.22,61.65 151.61,61.63 152,61.6 152.38,61.57 152.77,61.53 153.16,61.49 153.54,61.46 153.93,61.46 154.32,61.46 154.7,61.47 155.09,61.49 155.48,61.5 155.86,61.5 156.25,61.5 156.64,61.5 157.02,61.48 157.41,61.46 157.8,61.43 158.18,61.41 158.57,61.38 158.96,61.35 159.34,61.32 159.73,61.29 160.12,61.27 160.5,61.25 160.89,61.24 161.28,61.22 161.66,61.21 162.05,61.19 162.44,61.17 162.82,61.15 163.21,61.14 163.6,61.13 163.98,61.12 164.37,61.12 164.75,61.12 165.14,61.13 165.53,61.14 165.91,61.15 166.3,61.14 166.69,61.13 167.07,61.1 167.46,61.07 167.85,61.05 168.23,61.02 168.62,61 169.01,60.98 169.39,60.96 169.78,60.94 170.17,60.92 170.55,60.9 170.94,60.89 171.33,60.89 171.71,60.89 172.1,60.9 172.49,60.9 172.87,60.9 173.26,60.89 173.65,60.87 174.03,60.85 174.42,60.83 174.81,60.82 175.19,60.82 175.58,60.82 175.97,60.83 176.35,60.84 176.74,60.85 177.13,60.84 177.51,60.84 177.9,60.82 178.29,60.8 178.67,60.78 179.06,60.77 179.44,60.75 179.83,60.73 180.22,60.7 180.6,60.67 180.99,60.65 181.38,60.63 181.76,60.62 182.15,60.62 182.54,60.62 182.92,60.61 183.31,60.6 183.7,60.59 184.08,60.57 184.47,60.55 184.86,60.54 185.24,60.53 185.63,60.53 186.02,60.54 186.4,60.55 186.79,60.56 187.18,60.57 187.56,60.57 187.95,60.57 188.34,60.56 188.72,60.56 189.11,60.56 189.5,60.55 189.88,60.54 190.27,60.53 190.66,60.51 191.04,60.48 191.43,60.46 191.82,60.42 192.2,60.39 192.59,60.37 192.98,60.35 193.36,60.34 193.75,60.34 194.13,60.34 194.52,60.35 194.91,60.36 195.29,60.37 195.68,60.36 196.07,60.35 196.45,60.33 196.84,60.31 197.23,60.3 197.61,60.3 198,60.3 198.39,60.3 198.77,60.3 199.16,60.3 199.55,60.29 199.93,60.29 200.32,60.28 200.71,60.28 201.09,60.28 201.48,60.28 201.87,60.29 202.25,60.29 202.64,60.3 203.03,60.3 203.41,60.3 203.8,60.29 204.19,60.28 204.57,60.26 204.96,60.24 205.35,60.22 205.73,60.2 206.12,60.17 206.51,60.16 206.89,60.16 207.28,60.17 207.66,60.19 208.05,60.2 208.44,60.2 208.82,60.2 209.21,60.2 209.6,60.19 209.98,60.18 210.37,60.17 210.76,60.16 211.14,60.15 211.53,60.15 211.92,60.15 212.3,60.15 212.69,60.15 213.08,60.15 213.46,60.15 213.85,60.15 214.24,60.15 214.62,60.14 215.01,60.14 215.4,60.13 215.78,60.12 216.17,60.11 216.56,60.1 216.94,60.09 217.33,60.08 217.72,60.08 218.1,60.07 218.49,60.07 218.88,60.07 219.26,60.08 219.65,60.09 220.04,60.1 220.42,60.11 220.81,60.11 221.2,60.1 221.58,60.09 221.97,60.08 222.35,60.07 222.74,60.05 223.13,60.04 223.51,60.04 223.9,60.03 224.29,60.03 224.67,60.04 225.06,60.04 225.45,60.05 225.83,60.05 226.22,60.05 226.61,60.05 226.99,60.05 227.38,60.05 227.77,60.04 228.15,60.04 228.54,60.04 228.93,60.04 229.31,60.04 229.7,60.04 230.09,60.04 230.47,60.04 230.86,60.03 231.25,60.03 231.63,60.03 232.02,60.03 232.41,60.03 232.79,60.03 233.18,60.03 233.57,60.02 233.95,60.02 234.34,60.01 234.73,60.01 235.11,60 235.5,60 235.88,60 236.27,60 236.66,59.99 237.04,59.98 237.43,59.97 237.82,59.96 238.2,59.95 238.59,59.94 238.98,59.94 239.36,59.95 239.75,59.95 240.14,59.96 240.52,59.96 240.91,59.96 241.3,59.96 241.68,59.95 242.07,59.95 242.46,59.95 242.84,59.96 243.23,59.97 243.62,59.97 244,59.97 244.39,59.97 244.78,59.95 245.16,59.94 245.55,59.92 245.94,59.91 246.32,59.89 246.71,59.88 247.1,59.88 247.48,59.88 247.87,59.89 248.26,59.9 248.64,59.9 249.03,59.91 249.42,59.91 249.8,59.91 250.19,59.91 250.57,59.91 250.96,59.91 251.35,59.9 251.73,59.9 252.12,59.9 252.51,59.9 252.89,59.9 253.28,59.9 253.67,59.9 254.05,59.91 254.44,59.92 254.83,59.92 255.21,59.93 255.6,59.93 255.99,59.93 256.37,59.92 256.76,59.91 257.15,59.89 257.53,59.87 257.92,59.84 258.31,59.81 258.69,59.77 259.08,59.73 259.47,59.69 259.85,59.66 260.24,59.63 260.63,59.62 261.01,59.61 261.4,59.6 261.79,59.6 262.17,59.6" stroke-dasharray="none" stroke="rgb(31,120,180)" stroke-width="0.75" opacity="1" stroke-opacity="1" fill="none"/>
          </g>
        </g>
        <g id="Fig:densplot_01.panel.1.1.off.vp.2">
          <g id="Fig:densplot_01.border.panel.1.1.1">
            <rect id="Fig:densplot_01.border.panel.1.1.1.1" x="50.8" y="48.19" width="225.2" height="185.81" transform="" stroke="rgb(0,0,0)" stroke-dasharray="none" stroke-width="0.75" opacity="1" fill="none" stroke-opacity="1" fill-opacity="0"/>
          </g>
        </g>
        <g id="Fig:densplot_01..1"/>
      </g>
    </g>
  </g>
</svg>