<?xml version="1.0" encoding="UTF-8"?>
<svg xmlns="http://www.w3.org/2000/svg" xmlns:xlink="http://www.w3.org/1999/xlink" width="288px" height="252px" viewBox="0 0 288 252" version="1.1" id="Fig:dens">
  <metadata xmlns:gridsvg="http://www.stat.auckland.ac.nz/~paul/R/gridSVG/">
    <gridsvg:generator name="gridSVG" version="1.7-5" time="2023-12-14 20:06:35.854702"/>
    <gridsvg:argument name="name" value="report_exprsdata/dens.svg"/>
    <gridsvg:argument name="exportCoords" value="none"/>
    <gridsvg:argument name="exportMappings" value="none"/>
    <gridsvg:argument name="exportJS" value="none"/>
    <gridsvg:argument name="res" value="72"/>
    <gridsvg:argument name="prefix" value="Fig:dens"/>
    <gridsvg:argument name="addClasses" value="FALSE"/>
    <gridsvg:argument name="indent" value="TRUE"/>
    <gridsvg:argument name="htmlWrapper" value="FALSE"/>
    <gridsvg:argument name="usePaths" value="none"/>
    <gridsvg:argument name="uniqueNames" value="TRUE"/>
    <gridsvg:separator name="id.sep" value="."/>
    <gridsvg:separator name="gPath.sep" value="::"/>
    <gridsvg:separator name="vpPath.sep" value="::"/>
  </metadata>
  <g transform="translate(0, 252) scale(1, -1)">
    <g id="Fig:densgridSVG" fill="none" stroke="rgb(0,0,0)" stroke-dasharray="none" stroke-width="0.75" font-size="12" font-family="Helvetica, Arial, FreeSans, Liberation Sans, Nimbus Sans L, sans-serif" opacity="1" stroke-linecap="round" stroke-linejoin="round" stroke-miterlimit="10" stroke-opacity="1" fill-opacity="0" font-weight="normal" font-style="normal">
      <g id="Fig:densplot_01.background.1">
        <rect id="Fig:densplot_01.background.1.1" x="0" y="0" width="288" height="252" transform="" fill="none" stroke="none" stroke-opacity="0" fill-opacity="0"/>
      </g>
      <g id="Fig:densplot_01.toplevel.vp.1" font-size="12">
        <g id="Fig:densplot_01.ylab.vp.1">
          <g id="Fig:densplot_01.ylab.1">
            <g id="Fig:densplot_01.ylab.1.1" transform="translate(16.31, 141.09)" stroke-width="0.1">
              <g id="Fig:densplot_01.ylab.1.1.scale" transform="scale(1, -1)">
                <text x="0" y="0" id="Fig:densplot_01.ylab.1.1.text" transform="rotate(-90)" text-anchor="middle" opacity="1" stroke="rgb(0,0,0)" fill="rgb(0,0,0)" stroke-opacity="1" fill-opacity="1" font-size="12" font-weight="normal" font-style="normal">
                  <tspan id="Fig:densplot_01.ylab.1.1.tspan.1" dy="4.31" x="0">Density</tspan>
                </text>
              </g>
            </g>
          </g>
        </g>
        <g id="Fig:densplot_01.figure.vp.1"/>
        <defs>
          <clipPath id="Fig:densplot_01.panel.1.1.vp.1.clipPath">
            <rect x="50.8" y="48.19" width="225.2" height="185.81" fill="none" stroke="none"/>
          </clipPath>
        </defs>
        <g id="Fig:densplot_01.panel.1.1.vp.1" clip-path="url(#Fig:densplot_01.panel.1.1.vp.1.clipPath)"/>
        <g id="Fig:densplot_01.strip.1.1.off.vp.1"/>
        <g id="Fig:densplot_01.strip.left.1.1.off.vp.1">
          <g id="Fig:densplot_01.ticks.left.panel.1.1.1">
            <polyline id="Fig:densplot_01.ticks.left.panel.1.1.1.1" points="50.8,59.6 45.13,59.6" stroke="rgb(0,0,0)" opacity="1" stroke-dasharray="none" stroke-width="0.75" stroke-opacity="1" fill="none"/>
            <polyline id="Fig:densplot_01.ticks.left.panel.1.1.1.2" points="50.8,95.9 45.13,95.9" stroke="rgb(0,0,0)" opacity="1" stroke-dasharray="none" stroke-width="0.75" stroke-opacity="1" fill="none"/>
            <polyline id="Fig:densplot_01.ticks.left.panel.1.1.1.3" points="50.8,132.2 45.13,132.2" stroke="rgb(0,0,0)" opacity="1" stroke-dasharray="none" stroke-width="0.75" stroke-opacity="1" fill="none"/>
            <polyline id="Fig:densplot_01.ticks.left.panel.1.1.1.4" points="50.8,168.5 45.13,168.5" stroke="rgb(0,0,0)" opacity="1" stroke-dasharray="none" stroke-width="0.75" stroke-opacity="1" fill="none"/>
            <polyline id="Fig:densplot_01.ticks.left.panel.1.1.1.5" points="50.8,204.8 45.13,204.8" stroke="rgb(0,0,0)" opacity="1" stroke-dasharray="none" stroke-width="0.75" stroke-opacity="1" fill="none"/>
          </g>
          <g id="Fig:densplot_01.ticklabels.left.panel.1.1.1">
            <g id="Fig:densplot_01.ticklabels.left.panel.1.1.1.1" transform="translate(39.47, 59.6)" stroke-width="0.1">
              <g id="Fig:densplot_01.ticklabels.left.panel.1.1.1.1.scale" transform="scale(1, -1)">
                <text x="0" y="0" id="Fig:densplot_01.ticklabels.left.panel.1.1.1.1.text" transform="rotate(-90)" text-anchor="middle" stroke="rgb(0,0,0)" opacity="1" fill="rgb(0,0,0)" stroke-opacity="1" fill-opacity="1" font-size="9.6" font-weight="normal" font-style="normal">
                  <tspan id="Fig:densplot_01.ticklabels.left.panel.1.1.1.1.tspan.1" dy="0" x="0">0e+00</tspan>
                </text>
              </g>
            </g>
            <g id="Fig:densplot_01.ticklabels.left.panel.1.1.1.2" transform="translate(39.47, 95.9)" stroke-width="0.1">
              <g id="Fig:densplot_01.ticklabels.left.panel.1.1.1.2.scale" transform="scale(1, -1)">
                <text x="0" y="0" id="Fig:densplot_01.ticklabels.left.panel.1.1.1.2.text" transform="rotate(-90)" text-anchor="middle" stroke="rgb(0,0,0)" opacity="1" fill="rgb(0,0,0)" stroke-opacity="1" fill-opacity="1" font-size="9.6" font-weight="normal" font-style="normal">
                  <tspan id="Fig:densplot_01.ticklabels.left.panel.1.1.1.2.tspan.1" dy="0" x="0">2e-04</tspan>
                </text>
              </g>
            </g>
            <g id="Fig:densplot_01.ticklabels.left.panel.1.1.1.3" transform="translate(39.47, 132.2)" stroke-width="0.1">
              <g id="Fig:densplot_01.ticklabels.left.panel.1.1.1.3.scale" transform="scale(1, -1)">
                <text x="0" y="0" id="Fig:densplot_01.ticklabels.left.panel.1.1.1.3.text" transform="rotate(-90)" text-anchor="middle" stroke="rgb(0,0,0)" opacity="1" fill="rgb(0,0,0)" stroke-opacity="1" fill-opacity="1" font-size="9.6" font-weight="normal" font-style="normal">
                  <tspan id="Fig:densplot_01.ticklabels.left.panel.1.1.1.3.tspan.1" dy="0" x="0">4e-04</tspan>
                </text>
              </g>
            </g>
            <g id="Fig:densplot_01.ticklabels.left.panel.1.1.1.4" transform="translate(39.47, 168.5)" stroke-width="0.1">
              <g id="Fig:densplot_01.ticklabels.left.panel.1.1.1.4.scale" transform="scale(1, -1)">
                <text x="0" y="0" id="Fig:densplot_01.ticklabels.left.panel.1.1.1.4.text" transform="rotate(-90)" text-anchor="middle" stroke="rgb(0,0,0)" opacity="1" fill="rgb(0,0,0)" stroke-opacity="1" fill-opacity="1" font-size="9.6" font-weight="normal" font-style="normal">
                  <tspan id="Fig:densplot_01.ticklabels.left.panel.1.1.1.4.tspan.1" dy="0" x="0">6e-04</tspan>
                </text>
              </g>
            </g>
            <g id="Fig:densplot_01.ticklabels.left.panel.1.1.1.5" transform="translate(39.47, 204.8)" stroke-width="0.1">
              <g id="Fig:densplot_01.ticklabels.left.panel.1.1.1.5.scale" transform="scale(1, -1)">
                <text x="0" y="0" id="Fig:densplot_01.ticklabels.left.panel.1.1.1.5.text" transform="rotate(-90)" text-anchor="middle" stroke="rgb(0,0,0)" opacity="1" fill="rgb(0,0,0)" stroke-opacity="1" fill-opacity="1" font-size="9.6" font-weight="normal" font-style="normal">
                  <tspan id="Fig:densplot_01.ticklabels.left.panel.1.1.1.5.tspan.1" dy="0" x="0">8e-04</tspan>
                </text>
              </g>
            </g>
          </g>
        </g>
        <g id="Fig:densplot_01.panel.1.1.off.vp.1">
          <g id="Fig:densplot_01.ticks.bottom.panel.1.1.1">
            <polyline id="Fig:densplot_01.ticks.bottom.panel.1.1.1.1" points="79.18,48.19 79.18,42.52" stroke="rgb(0,0,0)" opacity="1" stroke-dasharray="none" stroke-width="0.75" stroke-opacity="1" fill="none"/>
            <polyline id="Fig:densplot_01.ticks.bottom.panel.1.1.1.2" points="122.08,48.19 122.08,42.52" stroke="rgb(0,0,0)" opacity="1" stroke-dasharray="none" stroke-width="0.75" stroke-opacity="1" fill="none"/>
            <polyline id="Fig:densplot_01.ticks.bottom.panel.1.1.1.3" points="164.97,48.19 164.97,42.52" stroke="rgb(0,0,0)" opacity="1" stroke-dasharray="none" stroke-width="0.75" stroke-opacity="1" fill="none"/>
            <polyline id="Fig:densplot_01.ticks.bottom.panel.1.1.1.4" points="207.87,48.19 207.87,42.52" stroke="rgb(0,0,0)" opacity="1" stroke-dasharray="none" stroke-width="0.75" stroke-opacity="1" fill="none"/>
            <polyline id="Fig:densplot_01.ticks.bottom.panel.1.1.1.5" points="250.77,48.19 250.77,42.52" stroke="rgb(0,0,0)" opacity="1" stroke-dasharray="none" stroke-width="0.75" stroke-opacity="1" fill="none"/>
          </g>
          <g id="Fig:densplot_01.ticklabels.bottom.panel.1.1.1">
            <g id="Fig:densplot_01.ticklabels.bottom.panel.1.1.1.1" transform="translate(79.18, 36.85)" stroke-width="0.1">
              <g id="Fig:densplot_01.ticklabels.bottom.panel.1.1.1.1.scale" transform="scale(1, -1)">
                <text x="0" y="0" id="Fig:densplot_01.ticklabels.bottom.panel.1.1.1.1.text" text-anchor="middle" stroke="rgb(0,0,0)" opacity="1" fill="rgb(0,0,0)" stroke-opacity="1" fill-opacity="1" font-size="9.6" font-weight="normal" font-style="normal">
                  <tspan id="Fig:densplot_01.ticklabels.bottom.panel.1.1.1.1.tspan.1" dy="7.18" x="0">0</tspan>
                </text>
              </g>
            </g>
            <g id="Fig:densplot_01.ticklabels.bottom.panel.1.1.1.2" transform="translate(122.08, 36.85)" stroke-width="0.1">
              <g id="Fig:densplot_01.ticklabels.bottom.panel.1.1.1.2.scale" transform="scale(1, -1)">
                <text x="0" y="0" id="Fig:densplot_01.ticklabels.bottom.panel.1.1.1.2.text" text-anchor="middle" stroke="rgb(0,0,0)" opacity="1" fill="rgb(0,0,0)" stroke-opacity="1" fill-opacity="1" font-size="9.6" font-weight="normal" font-style="normal">
                  <tspan id="Fig:densplot_01.ticklabels.bottom.panel.1.1.1.2.tspan.1" dy="7.18" x="0">2000</tspan>
                </text>
              </g>
            </g>
            <g id="Fig:densplot_01.ticklabels.bottom.panel.1.1.1.3" transform="translate(164.97, 36.85)" stroke-width="0.1">
              <g id="Fig:densplot_01.ticklabels.bottom.panel.1.1.1.3.scale" transform="scale(1, -1)">
                <text x="0" y="0" id="Fig:densplot_01.ticklabels.bottom.panel.1.1.1.3.text" text-anchor="middle" stroke="rgb(0,0,0)" opacity="1" fill="rgb(0,0,0)" stroke-opacity="1" fill-opacity="1" font-size="9.6" font-weight="normal" font-style="normal">
                  <tspan id="Fig:densplot_01.ticklabels.bottom.panel.1.1.1.3.tspan.1" dy="7.18" x="0">4000</tspan>
                </text>
              </g>
            </g>
            <g id="Fig:densplot_01.ticklabels.bottom.panel.1.1.1.4" transform="translate(207.87, 36.85)" stroke-width="0.1">
              <g id="Fig:densplot_01.ticklabels.bottom.panel.1.1.1.4.scale" transform="scale(1, -1)">
                <text x="0" y="0" id="Fig:densplot_01.ticklabels.bottom.panel.1.1.1.4.text" text-anchor="middle" stroke="rgb(0,0,0)" opacity="1" fill="rgb(0,0,0)" stroke-opacity="1" fill-opacity="1" font-size="9.6" font-weight="normal" font-style="normal">
                  <tspan id="Fig:densplot_01.ticklabels.bottom.panel.1.1.1.4.tspan.1" dy="7.18" x="0">6000</tspan>
                </text>
              </g>
            </g>
            <g id="Fig:densplot_01.ticklabels.bottom.panel.1.1.1.5" transform="translate(250.77, 36.85)" stroke-width="0.1">
              <g id="Fig:densplot_01.ticklabels.bottom.panel.1.1.1.5.scale" transform="scale(1, -1)">
                <text x="0" y="0" id="Fig:densplot_01.ticklabels.bottom.panel.1.1.1.5.text" text-anchor="middle" stroke="rgb(0,0,0)" opacity="1" fill="rgb(0,0,0)" stroke-opacity="1" fill-opacity="1" font-size="9.6" font-weight="normal" font-style="normal">
                  <tspan id="Fig:densplot_01.ticklabels.bottom.panel.1.1.1.5.tspan.1" dy="7.18" x="0">8000</tspan>
                </text>
              </g>
            </g>
          </g>
        </g>
        <defs>
          <clipPath id="Fig:densplot_01.panel.1.1.vp.2.clipPath">
            <rect x="50.8" y="48.19" width="225.2" height="185.81" fill="none" stroke="none"/>
          </clipPath>
        </defs>
        <g id="Fig:densplot_01.panel.1.1.vp.2" clip-path="url(#Fig:densplot_01.panel.1.1.vp.2.clipPath)">
          <g id="Fig:densplot_01.xyplot.lines.group.1.panel.1.1.1">
            <polyline id="Fig:densplot_01.xyplot.lines.group.1.panel.1.1.1.1" points="65.02,59.6 65.4,59.6 65.79,59.61 66.17,59.62 66.56,59.64 66.94,59.66 67.33,59.7 67.71,59.76 68.1,59.85 68.48,59.97 68.87,60.12 69.25,60.32 69.63,60.58 70.02,60.91 70.4,61.32 70.79,61.82 71.17,62.44 71.56,63.19 71.94,64.1 72.33,65.2 72.71,66.55 73.1,68.18 73.48,70.15 73.87,72.53 74.25,75.38 74.64,78.76 75.02,82.74 75.4,87.38 75.79,92.73 76.17,98.86 76.56,105.74 76.94,113.32 77.33,121.56 77.71,130.34 78.1,139.54 78.48,148.99 78.87,158.52 79.25,167.93 79.64,177.02 80.02,185.61 80.41,193.52 80.79,200.62 81.17,206.8 81.56,211.92 81.94,215.97 82.33,218.96 82.71,220.95 83.1,222 83.48,222.22 83.87,221.73 84.25,220.65 84.64,219.14 85.02,217.31 85.41,215.29 85.79,213.14 86.18,210.92 86.56,208.66 86.94,206.34 87.33,203.94 87.71,201.41 88.1,198.73 88.48,195.88 88.87,192.85 89.25,189.67 89.64,186.37 90.02,183.03 90.41,179.7 90.79,176.45 91.18,173.33 91.56,170.38 91.95,167.59 92.33,164.97 92.71,162.48 93.1,160.08 93.48,157.73 93.87,155.4 94.25,153.08 94.64,150.76 95.02,148.43 95.41,146.1 95.79,143.75 96.18,141.38 96.56,139 96.95,136.61 97.33,134.21 97.72,131.83 98.1,129.49 98.48,127.23 98.87,125.08 99.25,123.04 99.64,121.13 100.02,119.36 100.41,117.71 100.79,116.16 101.18,114.71 101.56,113.34 101.95,112.04 102.33,110.79 102.72,109.6 103.1,108.46 103.49,107.37 103.87,106.32 104.25,105.28 104.64,104.26 105.02,103.23 105.41,102.2 105.79,101.16 106.18,100.12 106.56,99.1 106.95,98.12 107.33,97.19 107.72,96.32 108.1,95.54 108.49,94.82 108.87,94.16 109.26,93.53 109.64,92.89 110.02,92.22 110.41,91.49 110.79,90.68 111.18,89.79 111.56,88.83 111.95,87.81 112.33,86.77 112.72,85.74 113.1,84.74 113.49,83.81 113.87,82.96 114.26,82.2 114.64,81.54 115.03,80.97 115.41,80.48 115.79,80.05 116.18,79.68 116.56,79.34 116.95,79.03 117.33,78.73 117.72,78.43 118.1,78.12 118.49,77.79 118.87,77.44 119.26,77.08 119.64,76.7 120.03,76.33 120.41,75.97 120.8,75.63 121.18,75.33 121.56,75.07 121.95,74.86 122.33,74.7 122.72,74.59 123.1,74.5 123.49,74.44 123.87,74.38 124.26,74.32 124.64,74.23 125.03,74.11 125.41,73.95 125.8,73.75 126.18,73.53 126.57,73.29 126.95,73.04 127.33,72.78 127.72,72.52 128.1,72.26 128.49,71.99 128.87,71.71 129.26,71.41 129.64,71.11 130.03,70.79 130.41,70.46 130.8,70.13 131.18,69.82 131.57,69.52 131.95,69.25 132.34,69 132.72,68.78 133.11,68.58 133.49,68.4 133.87,68.22 134.26,68.06 134.64,67.91 135.03,67.76 135.41,67.62 135.8,67.49 136.18,67.38 136.57,67.28 136.95,67.2 137.34,67.14 137.72,67.1 138.11,67.07 138.49,67.05 138.88,67.04 139.26,67.02 139.64,66.99 140.03,66.95 140.41,66.91 140.8,66.85 141.18,66.79 141.57,66.72 141.95,66.65 142.34,66.6 142.72,66.55 143.11,66.5 143.49,66.47 143.88,66.43 144.26,66.4 144.65,66.35 145.03,66.29 145.41,66.22 145.8,66.11 146.18,65.99 146.57,65.84 146.95,65.66 147.34,65.47 147.72,65.27 148.11,65.07 148.49,64.88 148.88,64.71 149.26,64.56 149.65,64.44 150.03,64.34 150.42,64.27 150.8,64.21 151.18,64.16 151.57,64.12 151.95,64.07 152.34,64.02 152.72,63.96 153.11,63.9 153.49,63.84 153.88,63.78 154.26,63.72 154.65,63.67 155.03,63.64 155.42,63.61 155.8,63.58 156.19,63.57 156.57,63.56 156.95,63.55 157.34,63.54 157.72,63.53 158.11,63.52 158.49,63.49 158.88,63.46 159.26,63.41 159.65,63.34 160.03,63.26 160.42,63.17 160.8,63.07 161.19,62.96 161.57,62.85 161.96,62.75 162.34,62.66 162.72,62.59 163.11,62.54 163.49,62.52 163.88,62.53 164.26,62.55 164.65,62.58 165.03,62.62 165.42,62.66 165.8,62.69 166.19,62.7 166.57,62.7 166.96,62.68 167.34,62.64 167.73,62.59 168.11,62.53 168.49,62.46 168.88,62.38 169.26,62.31 169.65,62.23 170.03,62.17 170.42,62.11 170.8,62.06 171.19,62.03 171.57,62.01 171.96,62.01 172.34,62.01 172.73,62.03 173.11,62.06 173.5,62.08 173.88,62.11 174.26,62.13 174.65,62.14 175.03,62.14 175.42,62.12 175.8,62.1 176.19,62.07 176.57,62.03 176.96,62 177.34,61.97 177.73,61.95 178.11,61.94 178.5,61.94 178.88,61.94 179.27,61.95 179.65,61.96 180.03,61.96 180.42,61.96 180.8,61.94 181.19,61.91 181.57,61.87 181.96,61.81 182.34,61.75 182.73,61.69 183.11,61.62 183.5,61.56 183.88,61.49 184.27,61.43 184.65,61.38 185.04,61.32 185.42,61.27 185.8,61.22 186.19,61.17 186.57,61.11 186.96,61.06 187.34,61.01 187.73,60.95 188.11,60.89 188.5,60.83 188.88,60.78 189.27,60.73 189.65,60.7 190.04,60.67 190.42,60.66 190.81,60.67 191.19,60.69 191.57,60.72 191.96,60.75 192.34,60.78 192.73,60.8 193.11,60.81 193.5,60.81 193.88,60.8 194.27,60.78 194.65,60.76 195.04,60.74 195.42,60.74 195.81,60.74 196.19,60.75 196.58,60.78 196.96,60.81 197.34,60.84 197.73,60.88 198.11,60.91 198.5,60.92 198.88,60.93 199.27,60.93 199.65,60.91 200.04,60.89 200.42,60.87 200.81,60.84 201.19,60.81 201.58,60.78 201.96,60.75 202.35,60.73 202.73,60.7 203.11,60.68 203.5,60.65 203.88,60.62 204.27,60.6 204.65,60.57 205.04,60.53 205.42,60.5 205.81,60.47 206.19,60.43 206.58,60.39 206.96,60.34 207.35,60.3 207.73,60.26 208.12,60.22 208.5,60.19 208.88,60.18 209.27,60.18 209.65,60.2 210.04,60.23 210.42,60.28 210.81,60.33 211.19,60.39 211.58,60.46 211.96,60.52 212.35,60.58 212.73,60.64 213.12,60.69 213.5,60.73 213.89,60.77 214.27,60.8 214.65,60.82 215.04,60.83 215.42,60.84 215.81,60.83 216.19,60.83 216.58,60.81 216.96,60.79 217.35,60.76 217.73,60.72 218.12,60.69 218.5,60.66 218.89,60.63 219.27,60.6 219.66,60.58 220.04,60.57 220.42,60.57 220.81,60.57 221.19,60.58 221.58,60.59 221.96,60.6 222.35,60.6 222.73,60.6 223.12,60.59 223.5,60.56 223.89,60.54 224.27,60.5 224.66,60.46 225.04,60.42 225.43,60.39 225.81,60.36 226.19,60.34 226.58,60.32 226.96,60.32 227.35,60.32 227.73,60.33 228.12,60.34 228.5,60.36 228.89,60.38 229.27,60.39 229.66,60.39 230.04,60.39 230.43,60.38 230.81,60.36 231.2,60.34 231.58,60.31 231.96,60.28 232.35,60.25 232.73,60.23 233.12,60.2 233.5,60.18 233.89,60.16 234.27,60.14 234.66,60.14 235.04,60.14 235.43,60.15 235.81,60.17 236.2,60.19 236.58,60.22 236.97,60.25 237.35,60.29 237.73,60.32 238.12,60.34 238.5,60.37 238.89,60.39 239.27,60.4 239.66,60.42 240.04,60.42 240.43,60.43 240.81,60.43 241.2,60.42 241.58,60.42 241.97,60.41 242.35,60.4 242.74,60.39 243.12,60.37 243.5,60.36 243.89,60.35 244.27,60.34 244.66,60.33 245.04,60.33 245.43,60.33 245.81,60.33 246.2,60.33 246.58,60.33 246.97,60.33 247.35,60.33 247.74,60.32 248.12,60.31 248.51,60.3 248.89,60.29 249.27,60.27 249.66,60.26 250.04,60.25 250.43,60.24 250.81,60.23 251.2,60.22 251.58,60.21 251.97,60.2 252.35,60.19 252.74,60.17 253.12,60.15 253.51,60.12 253.89,60.1 254.28,60.07 254.66,60.03 255.04,59.99 255.43,59.95 255.81,59.91 256.2,59.86 256.58,59.82 256.97,59.78 257.35,59.74 257.74,59.7 258.12,59.68 258.51,59.65 258.89,59.64 259.28,59.62 259.66,59.61 260.05,59.61 260.43,59.6 260.81,59.6 261.2,59.6 261.58,59.6" stroke-dasharray="none" stroke="rgb(31,120,180)" stroke-width="0.75" opacity="1" stroke-opacity="1" fill="none"/>
          </g>
          <g id="Fig:densplot_01.xyplot.lines.group.2.panel.1.1.1">
            <polyline id="Fig:densplot_01.xyplot.lines.group.2.panel.1.1.1.1" points="65.05,59.6 65.44,59.6 65.82,59.61 66.21,59.62 66.59,59.63 66.98,59.65 67.36,59.68 67.75,59.73 68.14,59.8 68.52,59.9 68.91,60.03 69.29,60.21 69.68,60.44 70.06,60.73 70.45,61.12 70.83,61.6 71.22,62.21 71.6,62.97 71.99,63.92 72.37,65.08 72.76,66.5 73.14,68.24 73.53,70.33 73.92,72.84 74.3,75.83 74.69,79.35 75.07,83.48 75.46,88.25 75.84,93.76 76.23,100.02 76.61,107.01 77,114.69 77.38,123.01 77.77,131.87 78.15,141.12 78.54,150.6 78.92,160.12 79.31,169.5 79.7,178.53 80.08,187.02 80.47,194.82 80.85,201.79 81.24,207.79 81.62,212.72 82.01,216.6 82.39,219.44 82.78,221.29 83.16,222.22 83.55,222.33 83.93,221.75 84.32,220.61 84.7,219.05 85.09,217.2 85.48,215.14 85.86,212.97 86.25,210.73 86.63,208.42 87.02,206.05 87.4,203.57 87.79,200.95 88.17,198.17 88.56,195.21 88.94,192.07 89.33,188.79 89.71,185.41 90.1,182 90.48,178.64 90.87,175.38 91.26,172.29 91.64,169.38 92.03,166.66 92.41,164.14 92.8,161.74 93.18,159.44 93.57,157.19 93.95,154.96 94.34,152.71 94.72,150.44 95.11,148.14 95.49,145.81 95.88,143.44 96.26,141.04 96.65,138.61 97.04,136.16 97.42,133.7 97.81,131.27 98.19,128.9 98.58,126.63 98.96,124.47 99.35,122.46 99.73,120.6 100.12,118.88 100.5,117.29 100.89,115.81 101.27,114.42 101.66,113.08 102.04,111.8 102.43,110.56 102.82,109.36 103.2,108.2 103.59,107.09 103.97,106.01 104.36,104.96 104.74,103.93 105.13,102.9 105.51,101.87 105.9,100.84 106.28,99.81 106.67,98.8 107.05,97.82 107.44,96.89 107.82,96.02 108.21,95.22 108.6,94.48 108.98,93.78 109.37,93.09 109.75,92.39 110.14,91.66 110.52,90.88 110.91,90.07 111.29,89.23 111.68,88.37 112.06,87.51 112.45,86.68 112.83,85.88 113.22,85.11 113.6,84.38 113.99,83.68 114.38,83.01 114.76,82.34 115.15,81.69 115.53,81.04 115.92,80.41 116.3,79.8 116.69,79.22 117.07,78.67 117.46,78.17 117.84,77.71 118.23,77.3 118.61,76.95 119,76.64 119.38,76.37 119.77,76.14 120.16,75.93 120.54,75.73 120.93,75.54 121.31,75.36 121.7,75.18 122.08,75.01 122.47,74.86 122.85,74.72 123.24,74.59 123.62,74.49 124.01,74.4 124.39,74.3 124.78,74.2 125.16,74.07 125.55,73.9 125.94,73.69 126.32,73.44 126.71,73.17 127.09,72.86 127.48,72.55 127.86,72.23 128.25,71.92 128.63,71.61 129.02,71.31 129.4,71.02 129.79,70.73 130.17,70.46 130.56,70.18 130.94,69.92 131.33,69.66 131.72,69.42 132.1,69.18 132.49,68.96 132.87,68.76 133.26,68.57 133.64,68.41 134.03,68.27 134.41,68.16 134.8,68.06 135.18,67.97 135.57,67.9 135.95,67.82 136.34,67.74 136.72,67.66 137.11,67.57 137.5,67.47 137.88,67.37 138.27,67.28 138.65,67.2 139.04,67.13 139.42,67.07 139.81,67.02 140.19,66.97 140.58,66.92 140.96,66.88 141.35,66.82 141.73,66.76 142.12,66.68 142.5,66.6 142.89,66.52 143.28,66.43 143.66,66.35 144.05,66.26 144.43,66.17 144.82,66.09 145.2,66 145.59,65.91 145.97,65.81 146.36,65.72 146.74,65.62 147.13,65.52 147.51,65.41 147.9,65.3 148.28,65.17 148.67,65.04 149.06,64.9 149.44,64.75 149.83,64.59 150.21,64.44 150.6,64.29 150.98,64.15 151.37,64.04 151.75,63.94 152.14,63.87 152.52,63.82 152.91,63.79 153.29,63.77 153.68,63.75 154.06,63.73 154.45,63.7 154.84,63.67 155.22,63.62 155.61,63.57 155.99,63.5 156.38,63.44 156.76,63.36 157.15,63.29 157.53,63.22 157.92,63.16 158.3,63.12 158.69,63.08 159.07,63.06 159.46,63.05 159.84,63.05 160.23,63.06 160.62,63.06 161,63.06 161.39,63.05 161.77,63.03 162.16,62.99 162.54,62.95 162.93,62.9 163.31,62.84 163.7,62.79 164.08,62.74 164.47,62.69 164.85,62.65 165.24,62.62 165.62,62.58 166.01,62.54 166.4,62.5 166.78,62.45 167.17,62.4 167.55,62.36 167.94,62.31 168.32,62.28 168.71,62.26 169.09,62.26 169.48,62.28 169.86,62.31 170.25,62.35 170.63,62.39 171.02,62.42 171.4,62.44 171.79,62.43 172.18,62.4 172.56,62.36 172.95,62.3 173.33,62.23 173.72,62.15 174.1,62.08 174.49,62.02 174.87,61.96 175.26,61.91 175.64,61.86 176.03,61.81 176.41,61.76 176.8,61.7 177.18,61.65 177.57,61.6 177.96,61.56 178.34,61.52 178.73,61.49 179.11,61.47 179.5,61.46 179.88,61.45 180.27,61.44 180.65,61.42 181.04,61.39 181.42,61.34 181.81,61.29 182.19,61.23 182.58,61.16 182.96,61.09 183.35,61.02 183.74,60.96 184.12,60.92 184.51,60.89 184.89,60.89 185.28,60.9 185.66,60.92 186.05,60.95 186.43,60.99 186.82,61.02 187.2,61.05 187.59,61.07 187.97,61.09 188.36,61.1 188.74,61.12 189.13,61.14 189.52,61.17 189.9,61.22 190.29,61.26 190.67,61.32 191.06,61.37 191.44,61.41 191.83,61.43 192.21,61.43 192.6,61.4 192.98,61.36 193.37,61.3 193.75,61.22 194.14,61.15 194.52,61.07 194.91,61 195.3,60.95 195.68,60.91 196.07,60.88 196.45,60.87 196.84,60.88 197.22,60.89 197.61,60.92 197.99,60.95 198.38,60.98 198.76,61.01 199.15,61.04 199.53,61.06 199.92,61.07 200.3,61.07 200.69,61.06 201.08,61.04 201.46,61 201.85,60.96 202.23,60.9 202.62,60.84 203,60.77 203.39,60.7 203.77,60.63 204.16,60.57 204.54,60.51 204.93,60.48 205.31,60.45 205.7,60.45 206.08,60.46 206.47,60.49 206.86,60.54 207.24,60.6 207.63,60.66 208.01,60.73 208.4,60.8 208.78,60.85 209.17,60.9 209.55,60.93 209.94,60.96 210.32,60.97 210.71,60.97 211.09,60.96 211.48,60.95 211.86,60.93 212.25,60.91 212.64,60.88 213.02,60.86 213.41,60.82 213.79,60.78 214.18,60.73 214.56,60.68 214.95,60.61 215.33,60.54 215.72,60.47 216.1,60.4 216.49,60.34 216.87,60.29 217.26,60.25 217.64,60.23 218.03,60.23 218.42,60.25 218.8,60.28 219.19,60.32 219.57,60.37 219.96,60.41 220.34,60.45 220.73,60.48 221.11,60.5 221.5,60.51 221.88,60.51 222.27,60.49 222.65,60.47 223.04,60.45 223.42,60.42 223.81,60.4 224.2,60.38 224.58,60.37 224.97,60.36 225.35,60.36 225.74,60.37 226.12,60.37 226.51,60.39 226.89,60.4 227.28,60.42 227.66,60.43 228.05,60.45 228.43,60.47 228.82,60.48 229.2,60.49 229.59,60.5 229.98,60.5 230.36,60.49 230.75,60.47 231.13,60.44 231.52,60.41 231.9,60.38 232.29,60.34 232.67,60.31 233.06,60.29 233.44,60.27 233.83,60.25 234.21,60.24 234.6,60.23 234.98,60.22 235.37,60.22 235.76,60.22 236.14,60.23 236.53,60.23 236.91,60.24 237.3,60.25 237.68,60.27 238.07,60.28 238.45,60.3 238.84,60.31 239.22,60.33 239.61,60.35 239.99,60.36 240.38,60.38 240.76,60.39 241.15,60.4 241.53,60.41 241.92,60.41 242.31,60.4 242.69,60.38 243.08,60.36 243.46,60.33 243.85,60.29 244.23,60.26 244.62,60.22 245,60.18 245.39,60.15 245.77,60.12 246.16,60.1 246.54,60.08 246.93,60.07 247.31,60.06 247.7,60.05 248.09,60.04 248.47,60.04 248.86,60.03 249.24,60.03 249.63,60.02 250.01,60.01 250.4,59.99 250.78,59.98 251.17,59.97 251.55,59.97 251.94,59.97 252.32,59.98 252.71,59.99 253.09,60.01 253.48,60.03 253.87,60.05 254.25,60.06 254.64,60.07 255.02,60.07 255.41,60.06 255.79,60.04 256.18,60 256.56,59.96 256.95,59.91 257.33,59.86 257.72,59.81 258.1,59.76 258.49,59.72 258.87,59.68 259.26,59.66 259.65,59.64 260.03,59.62 260.42,59.61 260.8,59.61 261.19,59.6 261.57,59.6 261.96,59.6" stroke-dasharray="none" stroke="rgb(31,120,180)" stroke-width="0.75" opacity="1" stroke-opacity="1" fill="none"/>
          </g>
          <g id="Fig:densplot_01.xyplot.lines.group.3.panel.1.1.1">
            <polyline id="Fig:densplot_01.xyplot.lines.group.3.panel.1.1.1.1" points="65.55,59.6 65.93,59.6 66.32,59.61 66.7,59.62 67.09,59.64 67.47,59.67 67.85,59.72 68.24,59.79 68.62,59.89 69.01,60.03 69.39,60.23 69.78,60.5 70.16,60.84 70.55,61.29 70.93,61.85 71.32,62.55 71.7,63.41 72.09,64.46 72.47,65.72 72.86,67.23 73.24,69.03 73.63,71.17 74.01,73.73 74.4,76.75 74.78,80.31 75.17,84.49 75.55,89.33 75.94,94.9 76.32,101.24 76.7,108.38 77.09,116.22 77.47,124.7 77.86,133.7 78.24,143.07 78.63,152.63 79.01,162.19 79.4,171.54 79.78,180.48 80.17,188.84 80.55,196.46 80.94,203.21 81.32,208.99 81.71,213.75 82.09,217.38 82.48,219.98 82.86,221.61 83.25,222.34 83.63,222.27 84.02,221.55 84.4,220.31 84.79,218.68 85.17,216.78 85.55,214.73 85.94,212.58 86.32,210.36 86.71,208.09 87.09,205.74 87.48,203.26 87.86,200.61 88.25,197.75 88.63,194.7 89.02,191.46 89.4,188.08 89.79,184.62 90.17,181.15 90.56,177.77 90.94,174.53 91.33,171.48 91.71,168.65 92.1,166.03 92.48,163.61 92.87,161.34 93.25,159.16 93.64,157.01 94.02,154.85 94.4,152.65 94.79,150.38 95.17,148.04 95.56,145.63 95.94,143.16 96.33,140.65 96.71,138.11 97.1,135.57 97.48,133.07 97.87,130.62 98.25,128.27 98.64,126.05 99.02,123.97 99.41,122.04 99.79,120.27 100.18,118.62 100.56,117.1 100.95,115.67 101.33,114.32 101.72,113.04 102.1,111.8 102.49,110.6 102.87,109.44 103.26,108.3 103.64,107.19 104.02,106.09 104.41,105 104.79,103.91 105.18,102.82 105.56,101.73 105.95,100.66 106.33,99.61 106.72,98.59 107.1,97.63 107.49,96.73 107.87,95.9 108.26,95.13 108.64,94.4 109.03,93.71 109.41,93.04 109.8,92.36 110.18,91.66 110.57,90.92 110.95,90.15 111.34,89.34 111.72,88.5 112.11,87.64 112.49,86.76 112.87,85.87 113.26,85 113.64,84.15 114.03,83.33 114.41,82.55 114.8,81.83 115.18,81.17 115.57,80.57 115.95,80.02 116.34,79.51 116.72,79.05 117.11,78.62 117.49,78.22 117.88,77.84 118.26,77.49 118.65,77.16 119.03,76.84 119.42,76.55 119.8,76.26 120.19,75.98 120.57,75.72 120.96,75.46 121.34,75.21 121.72,74.98 122.11,74.78 122.49,74.6 122.88,74.46 123.26,74.34 123.65,74.26 124.03,74.18 124.42,74.11 124.8,74.04 125.19,73.94 125.57,73.81 125.96,73.64 126.34,73.45 126.73,73.22 127.11,72.96 127.5,72.69 127.88,72.39 128.27,72.08 128.65,71.76 129.04,71.45 129.42,71.14 129.81,70.84 130.19,70.56 130.57,70.3 130.96,70.06 131.34,69.83 131.73,69.63 132.11,69.43 132.5,69.25 132.88,69.07 133.27,68.89 133.65,68.72 134.04,68.56 134.42,68.41 134.81,68.26 135.19,68.12 135.58,67.98 135.96,67.85 136.35,67.72 136.73,67.6 137.12,67.49 137.5,67.39 137.89,67.3 138.27,67.22 138.66,67.15 139.04,67.09 139.43,67.04 139.81,66.98 140.19,66.92 140.58,66.84 140.96,66.76 141.35,66.66 141.73,66.56 142.12,66.46 142.5,66.37 142.89,66.29 143.27,66.22 143.66,66.16 144.04,66.1 144.43,66.04 144.81,65.97 145.2,65.89 145.58,65.78 145.97,65.66 146.35,65.53 146.74,65.39 147.12,65.25 147.51,65.12 147.89,64.99 148.28,64.88 148.66,64.79 149.04,64.72 149.43,64.66 149.81,64.62 150.2,64.59 150.58,64.56 150.97,64.54 151.35,64.51 151.74,64.47 152.12,64.42 152.51,64.35 152.89,64.28 153.28,64.19 153.66,64.09 154.05,63.98 154.43,63.87 154.82,63.75 155.2,63.62 155.59,63.49 155.97,63.36 156.36,63.24 156.74,63.14 157.13,63.06 157.51,62.99 157.89,62.96 158.28,62.95 158.66,62.95 159.05,62.98 159.43,63 159.82,63.03 160.2,63.05 160.59,63.06 160.97,63.06 161.36,63.04 161.74,63.01 162.13,62.97 162.51,62.92 162.9,62.87 163.28,62.83 163.67,62.8 164.05,62.78 164.44,62.76 164.82,62.75 165.21,62.72 165.59,62.68 165.98,62.62 166.36,62.54 166.74,62.43 167.13,62.31 167.51,62.18 167.9,62.06 168.28,61.96 168.67,61.88 169.05,61.84 169.44,61.83 169.82,61.87 170.21,61.93 170.59,62.01 170.98,62.11 171.36,62.21 171.75,62.31 172.13,62.39 172.52,62.45 172.9,62.5 173.29,62.52 173.67,62.53 174.06,62.53 174.44,62.5 174.83,62.47 175.21,62.43 175.6,62.38 175.98,62.31 176.36,62.24 176.75,62.16 177.13,62.07 177.52,61.97 177.9,61.88 178.29,61.79 178.67,61.7 179.06,61.62 179.44,61.56 179.83,61.5 180.21,61.46 180.6,61.42 180.98,61.39 181.37,61.37 181.75,61.34 182.14,61.3 182.52,61.27 182.91,61.23 183.29,61.2 183.68,61.16 184.06,61.14 184.45,61.12 184.83,61.11 185.21,61.1 185.6,61.11 185.98,61.11 186.37,61.12 186.75,61.12 187.14,61.12 187.52,61.11 187.91,61.1 188.29,61.09 188.68,61.08 189.06,61.07 189.45,61.06 189.83,61.06 190.22,61.06 190.6,61.07 190.99,61.08 191.37,61.09 191.76,61.09 192.14,61.08 192.53,61.05 192.91,61.01 193.3,60.96 193.68,60.9 194.06,60.84 194.45,60.78 194.83,60.72 195.22,60.68 195.6,60.65 195.99,60.63 196.37,60.63 196.76,60.64 197.14,60.66 197.53,60.69 197.91,60.73 198.3,60.77 198.68,60.82 199.07,60.88 199.45,60.93 199.84,60.99 200.22,61.04 200.61,61.09 200.99,61.12 201.38,61.13 201.76,61.13 202.15,61.11 202.53,61.07 202.91,61.02 203.3,60.96 203.68,60.9 204.07,60.85 204.45,60.8 204.84,60.77 205.22,60.75 205.61,60.73 205.99,60.72 206.38,60.71 206.76,60.7 207.15,60.69 207.53,60.66 207.92,60.63 208.3,60.6 208.69,60.57 209.07,60.54 209.46,60.53 209.84,60.52 210.23,60.52 210.61,60.53 211,60.55 211.38,60.57 211.77,60.59 212.15,60.62 212.53,60.64 212.92,60.65 213.3,60.65 213.69,60.65 214.07,60.64 214.46,60.62 214.84,60.61 215.23,60.59 215.61,60.58 216,60.57 216.38,60.57 216.77,60.56 217.15,60.56 217.54,60.55 217.92,60.53 218.31,60.51 218.69,60.48 219.08,60.45 219.46,60.41 219.85,60.38 220.23,60.35 220.62,60.32 221,60.31 221.38,60.3 221.77,60.31 222.15,60.32 222.54,60.35 222.92,60.38 223.31,60.42 223.69,60.47 224.08,60.52 224.46,60.57 224.85,60.62 225.23,60.66 225.62,60.71 226,60.74 226.39,60.77 226.77,60.79 227.16,60.79 227.54,60.79 227.93,60.78 228.31,60.75 228.7,60.72 229.08,60.68 229.47,60.64 229.85,60.59 230.23,60.53 230.62,60.48 231,60.42 231.39,60.36 231.77,60.31 232.16,60.27 232.54,60.23 232.93,60.2 233.31,60.18 233.7,60.16 234.08,60.16 234.47,60.16 234.85,60.16 235.24,60.16 235.62,60.16 236.01,60.16 236.39,60.16 236.78,60.16 237.16,60.15 237.55,60.15 237.93,60.15 238.32,60.15 238.7,60.15 239.08,60.15 239.47,60.15 239.85,60.15 240.24,60.15 240.62,60.14 241.01,60.14 241.39,60.13 241.78,60.13 242.16,60.13 242.55,60.13 242.93,60.13 243.32,60.12 243.7,60.12 244.09,60.11 244.47,60.11 244.86,60.1 245.24,60.1 245.63,60.1 246.01,60.1 246.4,60.11 246.78,60.13 247.17,60.16 247.55,60.18 247.94,60.21 248.32,60.23 248.7,60.25 249.09,60.25 249.47,60.24 249.86,60.22 250.24,60.19 250.63,60.15 251.01,60.11 251.4,60.07 251.78,60.04 252.17,60.02 252.55,60.01 252.94,60 253.32,60.01 253.71,60.02 254.09,60.04 254.48,60.05 254.86,60.05 255.25,60.05 255.63,60.03 256.02,60.01 256.4,59.98 256.79,59.93 257.17,59.89 257.55,59.84 257.94,59.79 258.32,59.75 258.71,59.71 259.09,59.68 259.48,59.65 259.86,59.64 260.25,59.62 260.63,59.61 261.02,59.61 261.4,59.6 261.79,59.6 262.17,59.6" stroke-dasharray="none" stroke="rgb(31,120,180)" stroke-width="0.75" opacity="1" stroke-opacity="1" fill="none"/>
          </g>
          <g id="Fig:densplot_01.xyplot.lines.group.4.panel.1.1.1">
            <polyline id="Fig:densplot_01.xyplot.lines.group.4.panel.1.1.1.1" points="64.84,59.6 65.22,59.6 65.61,59.6 66,59.61 66.38,59.62 66.77,59.64 67.15,59.67 67.54,59.72 67.93,59.79 68.31,59.88 68.7,60.01 69.08,60.19 69.47,60.41 69.86,60.7 70.24,61.06 70.63,61.52 71.01,62.08 71.4,62.76 71.79,63.61 72.17,64.64 72.56,65.89 72.94,67.42 73.33,69.28 73.72,71.52 74.1,74.2 74.49,77.39 74.87,81.15 75.26,85.55 75.65,90.68 76.03,96.55 76.42,103.16 76.8,110.49 77.19,118.5 77.58,127.1 77.96,136.18 78.35,145.58 78.73,155.12 79.12,164.62 79.51,173.86 79.89,182.67 80.28,190.86 80.66,198.29 81.05,204.78 81.44,210.28 81.82,214.75 82.21,218.19 82.59,220.6 82.98,222.04 83.37,222.59 83.75,222.36 84.14,221.48 84.52,220.1 84.91,218.34 85.3,216.33 85.68,214.16 86.07,211.91 86.45,209.61 86.84,207.24 87.23,204.79 87.61,202.21 88,199.48 88.38,196.57 88.77,193.48 89.16,190.24 89.54,186.89 89.93,183.49 90.31,180.1 90.7,176.81 91.09,173.65 91.47,170.66 91.86,167.86 92.24,165.23 92.63,162.74 93.02,160.35 93.4,158.02 93.79,155.73 94.17,153.46 94.56,151.19 94.95,148.91 95.33,146.62 95.72,144.31 96.1,141.98 96.49,139.61 96.88,137.22 97.26,134.81 97.65,132.4 98.03,130.02 98.42,127.71 98.81,125.5 99.19,123.41 99.58,121.47 99.96,119.66 100.35,117.99 100.74,116.44 101.12,114.98 101.51,113.6 101.89,112.29 102.28,111.03 102.67,109.81 103.05,108.65 103.44,107.52 103.82,106.44 104.21,105.38 104.6,104.35 104.98,103.33 105.37,102.31 105.75,101.28 106.14,100.25 106.53,99.23 106.91,98.23 107.3,97.26 107.68,96.34 108.07,95.5 108.46,94.73 108.84,94.03 109.23,93.39 109.61,92.77 110,92.14 110.39,91.49 110.77,90.78 111.16,90.01 111.54,89.19 111.93,88.31 112.32,87.39 112.7,86.45 113.09,85.51 113.47,84.59 113.86,83.69 114.25,82.84 114.63,82.04 115.02,81.29 115.4,80.61 115.79,79.99 116.18,79.45 116.56,78.98 116.95,78.57 117.33,78.23 117.72,77.93 118.11,77.66 118.49,77.41 118.88,77.16 119.26,76.9 119.65,76.63 120.04,76.35 120.42,76.06 120.81,75.77 121.19,75.48 121.58,75.2 121.97,74.94 122.35,74.72 122.74,74.53 123.12,74.39 123.51,74.28 123.9,74.2 124.28,74.14 124.67,74.09 125.05,74.02 125.44,73.91 125.83,73.75 126.21,73.54 126.6,73.28 126.98,72.96 127.37,72.6 127.76,72.21 128.14,71.81 128.53,71.41 128.91,71.04 129.3,70.68 129.69,70.37 130.07,70.08 130.46,69.84 130.84,69.63 131.23,69.46 131.62,69.31 132,69.17 132.39,69.05 132.78,68.94 133.16,68.82 133.55,68.7 133.93,68.56 134.32,68.41 134.71,68.26 135.09,68.09 135.48,67.93 135.86,67.76 136.25,67.61 136.64,67.47 137.02,67.34 137.41,67.22 137.79,67.12 138.18,67.03 138.57,66.95 138.95,66.87 139.34,66.81 139.72,66.76 140.11,66.73 140.5,66.7 140.88,66.69 141.27,66.68 141.65,66.68 142.04,66.66 142.43,66.62 142.81,66.56 143.2,66.48 143.58,66.39 143.97,66.28 144.36,66.17 144.74,66.07 145.13,65.98 145.51,65.9 145.9,65.85 146.29,65.82 146.67,65.8 147.06,65.78 147.44,65.75 147.83,65.7 148.22,65.62 148.6,65.51 148.99,65.35 149.37,65.16 149.76,64.95 150.15,64.73 150.53,64.51 150.92,64.3 151.3,64.13 151.69,63.98 152.08,63.87 152.46,63.8 152.85,63.75 153.23,63.71 153.62,63.69 154.01,63.68 154.39,63.66 154.78,63.64 155.16,63.61 155.55,63.58 155.94,63.55 156.32,63.51 156.71,63.47 157.09,63.43 157.48,63.39 157.87,63.35 158.25,63.31 158.64,63.27 159.02,63.23 159.41,63.19 159.8,63.16 160.18,63.12 160.57,63.1 160.95,63.08 161.34,63.07 161.73,63.07 162.11,63.07 162.5,63.06 162.88,63.05 163.27,63.03 163.66,63 164.04,62.96 164.43,62.92 164.81,62.87 165.2,62.81 165.59,62.75 165.97,62.68 166.36,62.6 166.74,62.51 167.13,62.42 167.52,62.31 167.9,62.21 168.29,62.11 168.67,62.02 169.06,61.95 169.45,61.9 169.83,61.87 170.22,61.87 170.6,61.89 170.99,61.93 171.38,61.98 171.76,62.04 172.15,62.09 172.53,62.14 172.92,62.17 173.31,62.19 173.69,62.19 174.08,62.17 174.46,62.14 174.85,62.08 175.24,62.01 175.62,61.93 176.01,61.85 176.39,61.76 176.78,61.66 177.17,61.58 177.55,61.49 177.94,61.42 178.32,61.36 178.71,61.31 179.1,61.27 179.48,61.26 179.87,61.26 180.25,61.28 180.64,61.31 181.03,61.36 181.41,61.41 181.8,61.46 182.18,61.51 182.57,61.55 182.96,61.59 183.34,61.61 183.73,61.63 184.11,61.64 184.5,61.63 184.89,61.61 185.27,61.57 185.66,61.51 186.04,61.44 186.43,61.35 186.82,61.26 187.2,61.16 187.59,61.07 187.97,60.99 188.36,60.92 188.75,60.88 189.13,60.85 189.52,60.84 189.9,60.85 190.29,60.86 190.68,60.89 191.06,60.91 191.45,60.94 191.83,60.95 192.22,60.97 192.61,60.98 192.99,60.98 193.38,60.99 193.76,60.99 194.15,61 194.54,61.01 194.92,61.02 195.31,61.03 195.69,61.04 196.08,61.05 196.47,61.06 196.85,61.07 197.24,61.08 197.62,61.09 198.01,61.09 198.4,61.08 198.78,61.07 199.17,61.05 199.55,61.02 199.94,60.98 200.33,60.93 200.71,60.87 201.1,60.81 201.48,60.75 201.87,60.68 202.26,60.62 202.64,60.57 203.03,60.53 203.41,60.51 203.8,60.51 204.19,60.53 204.57,60.57 204.96,60.63 205.34,60.69 205.73,60.77 206.12,60.84 206.5,60.9 206.89,60.94 207.27,60.96 207.66,60.96 208.05,60.93 208.43,60.88 208.82,60.82 209.2,60.75 209.59,60.69 209.98,60.63 210.36,60.57 210.75,60.53 211.13,60.49 211.52,60.47 211.91,60.45 212.29,60.44 212.68,60.43 213.06,60.43 213.45,60.43 213.84,60.43 214.22,60.45 214.61,60.47 214.99,60.49 215.38,60.52 215.77,60.56 216.15,60.59 216.54,60.62 216.92,60.64 217.31,60.65 217.7,60.65 218.08,60.63 218.47,60.6 218.85,60.57 219.24,60.53 219.63,60.5 220.01,60.46 220.4,60.43 220.78,60.41 221.17,60.4 221.56,60.39 221.94,60.39 222.33,60.38 222.71,60.38 223.1,60.38 223.49,60.37 223.87,60.37 224.26,60.36 224.64,60.36 225.03,60.36 225.42,60.36 225.8,60.37 226.19,60.38 226.57,60.39 226.96,60.41 227.35,60.43 227.73,60.45 228.12,60.46 228.5,60.48 228.89,60.49 229.28,60.49 229.66,60.49 230.05,60.48 230.43,60.46 230.82,60.44 231.21,60.42 231.59,60.39 231.98,60.37 232.36,60.36 232.75,60.34 233.14,60.33 233.52,60.31 233.91,60.3 234.29,60.29 234.68,60.28 235.07,60.26 235.45,60.25 235.84,60.23 236.22,60.21 236.61,60.2 237,60.18 237.38,60.16 237.77,60.15 238.15,60.13 238.54,60.12 238.93,60.11 239.31,60.1 239.7,60.11 240.08,60.12 240.47,60.13 240.86,60.16 241.24,60.18 241.63,60.21 242.01,60.24 242.4,60.27 242.79,60.3 243.17,60.32 243.56,60.34 243.94,60.35 244.33,60.36 244.72,60.37 245.1,60.38 245.49,60.38 245.87,60.38 246.26,60.38 246.65,60.37 247.03,60.36 247.42,60.35 247.8,60.34 248.19,60.33 248.58,60.32 248.96,60.32 249.35,60.31 249.73,60.31 250.12,60.3 250.51,60.3 250.89,60.3 251.28,60.29 251.66,60.28 252.05,60.27 252.44,60.25 252.82,60.23 253.21,60.21 253.59,60.19 253.98,60.16 254.37,60.13 254.75,60.09 255.14,60.05 255.52,60.01 255.91,59.96 256.3,59.91 256.68,59.86 257.07,59.81 257.45,59.77 257.84,59.73 258.23,59.7 258.61,59.67 259,59.65 259.38,59.63 259.77,59.62 260.16,59.61 260.54,59.61 260.93,59.6 261.31,59.6 261.7,59.6 262.09,59.6" stroke-dasharray="none" stroke="rgb(31,120,180)" stroke-width="0.75" opacity="1" stroke-opacity="1" fill="none"/>
          </g>
          <g id="Fig:densplot_01.xyplot.lines.group.5.panel.1.1.1">
            <polyline id="Fig:densplot_01.xyplot.lines.group.5.panel.1.1.1.1" points="64.63,59.6 65.02,59.6 65.4,59.6 65.79,59.61 66.17,59.62 66.56,59.64 66.94,59.66 67.33,59.7 67.72,59.75 68.1,59.82 68.49,59.92 68.87,60.05 69.26,60.22 69.64,60.43 70.03,60.7 70.41,61.05 70.8,61.48 71.19,62.03 71.57,62.72 71.96,63.6 72.34,64.7 72.73,66.07 73.11,67.77 73.5,69.85 73.88,72.37 74.27,75.38 74.65,78.93 75.04,83.08 75.43,87.93 75.81,93.46 76.2,99.69 76.58,106.63 76.97,114.25 77.35,122.49 77.74,131.26 78.12,140.45 78.51,149.89 78.9,159.41 79.28,168.81 79.67,177.89 80.05,186.46 80.44,194.34 80.82,201.34 81.21,207.36 81.59,212.37 81.98,216.33 82.37,219.26 82.75,221.18 83.14,222.17 83.52,222.34 83.91,221.8 84.29,220.69 84.68,219.14 85.06,217.28 85.45,215.22 85.83,213.04 86.22,210.79 86.61,208.5 86.99,206.14 87.38,203.69 87.76,201.11 88.15,198.36 88.53,195.42 88.92,192.3 89.3,189.02 89.69,185.63 90.08,182.2 90.46,178.8 90.85,175.51 91.23,172.37 91.62,169.43 92,166.71 92.39,164.16 92.77,161.76 93.16,159.46 93.55,157.21 93.93,154.98 94.32,152.75 94.7,150.5 95.09,148.23 95.47,145.93 95.86,143.59 96.24,141.23 96.63,138.83 97.01,136.4 97.4,133.95 97.79,131.52 98.17,129.13 98.56,126.82 98.94,124.63 99.33,122.58 99.71,120.69 100.1,118.95 100.48,117.35 100.87,115.87 101.26,114.47 101.64,113.14 102.03,111.87 102.41,110.65 102.8,109.47 103.18,108.34 103.57,107.26 103.95,106.21 104.34,105.19 104.72,104.17 105.11,103.15 105.5,102.12 105.88,101.07 106.27,100.01 106.65,98.96 107.04,97.95 107.42,96.98 107.81,96.08 108.19,95.26 108.58,94.5 108.97,93.79 109.35,93.1 109.74,92.42 110.12,91.71 110.51,90.97 110.89,90.18 111.28,89.35 111.66,88.49 112.05,87.61 112.44,86.72 112.82,85.85 113.21,85.01 113.59,84.21 113.98,83.47 114.36,82.77 114.75,82.12 115.13,81.52 115.52,80.95 115.9,80.42 116.29,79.92 116.68,79.44 117.06,78.97 117.45,78.52 117.83,78.08 118.22,77.65 118.6,77.23 118.99,76.82 119.37,76.44 119.76,76.08 120.15,75.76 120.53,75.47 120.92,75.21 121.3,75 121.69,74.82 122.07,74.68 122.46,74.58 122.84,74.49 123.23,74.43 123.61,74.37 124,74.32 124.39,74.24 124.77,74.14 125.16,74.01 125.54,73.83 125.93,73.62 126.31,73.37 126.7,73.1 127.08,72.82 127.47,72.53 127.86,72.25 128.24,71.96 128.63,71.69 129.01,71.42 129.4,71.15 129.78,70.87 130.17,70.59 130.55,70.31 130.94,70.03 131.33,69.75 131.71,69.49 132.1,69.24 132.48,69.01 132.87,68.81 133.25,68.62 133.64,68.46 134.02,68.31 134.41,68.18 134.79,68.05 135.18,67.94 135.57,67.82 135.95,67.71 136.34,67.6 136.72,67.5 137.11,67.4 137.49,67.29 137.88,67.2 138.26,67.1 138.65,67 139.04,66.91 139.42,66.81 139.81,66.72 140.19,66.64 140.58,66.56 140.96,66.5 141.35,66.45 141.73,66.42 142.12,66.4 142.5,66.38 142.89,66.37 143.28,66.35 143.66,66.31 144.05,66.25 144.43,66.18 144.82,66.09 145.2,65.99 145.59,65.88 145.97,65.77 146.36,65.66 146.75,65.57 147.13,65.48 147.52,65.4 147.9,65.31 148.29,65.23 148.67,65.15 149.06,65.06 149.44,64.97 149.83,64.88 150.22,64.79 150.6,64.7 150.99,64.62 151.37,64.55 151.76,64.47 152.14,64.4 152.53,64.33 152.91,64.26 153.3,64.19 153.68,64.12 154.07,64.04 154.46,63.96 154.84,63.88 155.23,63.78 155.61,63.69 156,63.59 156.38,63.49 156.77,63.39 157.15,63.3 157.54,63.22 157.93,63.15 158.31,63.09 158.7,63.04 159.08,63.01 159.47,62.99 159.85,62.99 160.24,63 160.62,63.02 161.01,63.05 161.4,63.08 161.78,63.12 162.17,63.16 162.55,63.18 162.94,63.2 163.32,63.19 163.71,63.16 164.09,63.11 164.48,63.03 164.86,62.94 165.25,62.84 165.64,62.73 166.02,62.62 166.41,62.53 166.79,62.44 167.18,62.37 167.56,62.31 167.95,62.26 168.33,62.22 168.72,62.18 169.11,62.14 169.49,62.11 169.88,62.07 170.26,62.04 170.65,62 171.03,61.97 171.42,61.94 171.8,61.92 172.19,61.9 172.57,61.89 172.96,61.88 173.35,61.89 173.73,61.89 174.12,61.9 174.5,61.9 174.89,61.9 175.27,61.88 175.66,61.85 176.04,61.81 176.43,61.75 176.82,61.69 177.2,61.62 177.59,61.56 177.97,61.52 178.36,61.48 178.74,61.46 179.13,61.45 179.51,61.45 179.9,61.44 180.29,61.43 180.67,61.41 181.06,61.38 181.44,61.33 181.83,61.27 182.21,61.21 182.6,61.15 182.98,61.09 183.37,61.03 183.75,60.99 184.14,60.95 184.53,60.93 184.91,60.92 185.3,60.92 185.68,60.93 186.07,60.95 186.45,60.98 186.84,61.03 187.22,61.08 187.61,61.15 188,61.21 188.38,61.28 188.77,61.34 189.15,61.4 189.54,61.45 189.92,61.49 190.31,61.52 190.69,61.54 191.08,61.55 191.46,61.54 191.85,61.53 192.24,61.5 192.62,61.46 193.01,61.41 193.39,61.35 193.78,61.28 194.16,61.21 194.55,61.14 194.93,61.07 195.32,61.01 195.71,60.96 196.09,60.93 196.48,60.9 196.86,60.89 197.25,60.89 197.63,60.89 198.02,60.9 198.4,60.91 198.79,60.92 199.18,60.94 199.56,60.96 199.95,60.99 200.33,61.02 200.72,61.05 201.1,61.08 201.49,61.1 201.87,61.12 202.26,61.13 202.64,61.13 203.03,61.12 203.42,61.09 203.8,61.05 204.19,61.01 204.57,60.95 204.96,60.9 205.34,60.84 205.73,60.78 206.11,60.74 206.5,60.7 206.89,60.66 207.27,60.64 207.66,60.63 208.04,60.63 208.43,60.63 208.81,60.64 209.2,60.66 209.58,60.67 209.97,60.69 210.35,60.7 210.74,60.72 211.13,60.73 211.51,60.73 211.9,60.74 212.28,60.75 212.67,60.76 213.05,60.77 213.44,60.78 213.82,60.8 214.21,60.81 214.6,60.82 214.98,60.84 215.37,60.84 215.75,60.85 216.14,60.85 216.52,60.84 216.91,60.83 217.29,60.82 217.68,60.79 218.07,60.76 218.45,60.72 218.84,60.67 219.22,60.62 219.61,60.56 219.99,60.51 220.38,60.47 220.76,60.43 221.15,60.39 221.53,60.37 221.92,60.35 222.31,60.34 222.69,60.33 223.08,60.33 223.46,60.34 223.85,60.35 224.23,60.35 224.62,60.36 225,60.36 225.39,60.36 225.78,60.35 226.16,60.34 226.55,60.32 226.93,60.3 227.32,60.29 227.7,60.27 228.09,60.26 228.47,60.25 228.86,60.25 229.24,60.25 229.63,60.26 230.02,60.27 230.4,60.29 230.79,60.31 231.17,60.33 231.56,60.35 231.94,60.37 232.33,60.38 232.71,60.39 233.1,60.4 233.49,60.4 233.87,60.39 234.26,60.37 234.64,60.35 235.03,60.32 235.41,60.29 235.8,60.25 236.18,60.21 236.57,60.17 236.96,60.14 237.34,60.11 237.73,60.08 238.11,60.05 238.5,60.03 238.88,60.02 239.27,60.01 239.65,60 240.04,60 240.42,60.01 240.81,60.02 241.2,60.04 241.58,60.05 241.97,60.06 242.35,60.07 242.74,60.07 243.12,60.06 243.51,60.04 243.89,60.02 244.28,59.99 244.67,59.95 245.05,59.93 245.44,59.91 245.82,59.89 246.21,59.9 246.59,59.91 246.98,59.93 247.36,59.97 247.75,60 248.14,60.04 248.52,60.08 248.91,60.11 249.29,60.13 249.68,60.15 250.06,60.17 250.45,60.17 250.83,60.17 251.22,60.17 251.6,60.16 251.99,60.16 252.38,60.15 252.76,60.15 253.15,60.15 253.53,60.16 253.92,60.16 254.3,60.15 254.69,60.14 255.07,60.12 255.46,60.09 255.85,60.05 256.23,60 256.62,59.94 257,59.88 257.39,59.82 257.77,59.77 258.16,59.73 258.54,59.69 258.93,59.66 259.31,59.64 259.7,59.62 260.09,59.61 260.47,59.61 260.86,59.6 261.24,59.6 261.63,59.6" stroke-dasharray="none" stroke="rgb(31,120,180)" stroke-width="0.75" opacity="1" stroke-opacity="1" fill="none"/>
          </g>
          <g id="Fig:densplot_01.xyplot.lines.group.6.panel.1.1.1">
            <polyline id="Fig:densplot_01.xyplot.lines.group.6.panel.1.1.1.1" points="65.33,59.6 65.72,59.6 66.1,59.61 66.49,59.62 66.87,59.64 67.25,59.66 67.64,59.7 68.02,59.76 68.41,59.84 68.79,59.95 69.18,60.11 69.56,60.31 69.95,60.58 70.33,60.92 70.72,61.36 71.1,61.92 71.48,62.63 71.87,63.51 72.25,64.6 72.64,65.95 73.02,67.58 73.41,69.57 73.79,71.95 74.18,74.78 74.56,78.13 74.94,82.05 75.33,86.6 75.71,91.82 76.1,97.77 76.48,104.49 76.87,111.91 77.25,120 77.64,128.66 78.02,137.77 78.41,147.18 78.79,156.7 79.17,166.13 79.56,175.28 79.94,183.96 80.33,192 80.71,199.25 81.1,205.61 81.48,210.98 81.87,215.26 82.25,218.49 82.64,220.73 83.02,222.02 83.4,222.45 83.79,222.14 84.17,221.22 84.56,219.83 84.94,218.08 85.33,216.11 85.71,213.99 86.1,211.78 86.48,209.51 86.87,207.18 87.25,204.74 87.63,202.17 88.02,199.43 88.4,196.5 88.79,193.38 89.17,190.1 89.56,186.7 89.94,183.27 90.33,179.86 90.71,176.56 91.1,173.41 91.48,170.47 91.86,167.73 92.25,165.18 92.63,162.79 93.02,160.51 93.4,158.27 93.79,156.04 94.17,153.78 94.56,151.48 94.94,149.13 95.33,146.74 95.71,144.31 96.09,141.86 96.48,139.4 96.86,136.95 97.25,134.52 97.63,132.13 98.02,129.81 98.4,127.57 98.79,125.45 99.17,123.45 99.56,121.57 99.94,119.81 100.32,118.17 100.71,116.62 101.09,115.16 101.48,113.77 101.86,112.44 102.25,111.18 102.63,109.97 103.02,108.82 103.4,107.72 103.79,106.66 104.17,105.62 104.55,104.58 104.94,103.52 105.32,102.44 105.71,101.34 106.09,100.24 106.48,99.14 106.86,98.09 107.25,97.09 107.63,96.18 108.01,95.35 108.4,94.62 108.78,93.95 109.17,93.33 109.55,92.72 109.94,92.08 110.32,91.4 110.71,90.65 111.09,89.85 111.48,89 111.86,88.12 112.24,87.25 112.63,86.39 113.01,85.56 113.4,84.78 113.78,84.03 114.17,83.32 114.55,82.65 114.94,82 115.32,81.39 115.71,80.8 116.09,80.24 116.47,79.72 116.86,79.23 117.24,78.77 117.63,78.33 118.01,77.91 118.4,77.5 118.78,77.09 119.17,76.69 119.55,76.3 119.94,75.92 120.32,75.58 120.7,75.27 121.09,75 121.47,74.78 121.86,74.61 122.24,74.48 122.63,74.4 123.01,74.35 123.4,74.34 123.78,74.34 124.17,74.35 124.55,74.36 124.93,74.34 125.32,74.28 125.7,74.17 126.09,74 126.47,73.76 126.86,73.47 127.24,73.13 127.63,72.74 128.01,72.31 128.4,71.87 128.78,71.43 129.16,71 129.55,70.6 129.93,70.24 130.32,69.93 130.7,69.67 131.09,69.46 131.47,69.29 131.86,69.15 132.24,69.01 132.63,68.87 133.01,68.72 133.39,68.55 133.78,68.37 134.16,68.17 134.55,67.98 134.93,67.8 135.32,67.64 135.7,67.52 136.09,67.46 136.47,67.45 136.86,67.49 137.24,67.58 137.62,67.68 138.01,67.78 138.39,67.86 138.78,67.9 139.16,67.88 139.55,67.81 139.93,67.68 140.32,67.49 140.7,67.27 141.08,67.03 141.47,66.79 141.85,66.56 142.24,66.36 142.62,66.19 143.01,66.06 143.39,65.97 143.78,65.9 144.16,65.86 144.55,65.84 144.93,65.82 145.31,65.8 145.7,65.77 146.08,65.71 146.47,65.64 146.85,65.54 147.24,65.43 147.62,65.29 148.01,65.15 148.39,65.01 148.78,64.87 149.16,64.75 149.54,64.65 149.93,64.55 150.31,64.47 150.7,64.41 151.08,64.34 151.47,64.29 151.85,64.23 152.24,64.18 152.62,64.12 153.01,64.07 153.39,64.02 153.77,63.98 154.16,63.94 154.54,63.91 154.93,63.88 155.31,63.86 155.7,63.84 156.08,63.82 156.47,63.79 156.85,63.75 157.24,63.68 157.62,63.6 158,63.5 158.39,63.37 158.77,63.23 159.16,63.08 159.54,62.95 159.93,62.84 160.31,62.76 160.7,62.72 161.08,62.72 161.47,62.76 161.85,62.82 162.23,62.9 162.62,62.98 163,63.06 163.39,63.12 163.77,63.16 164.16,63.17 164.54,63.16 164.93,63.13 165.31,63.08 165.7,63.02 166.08,62.94 166.46,62.86 166.85,62.77 167.23,62.69 167.62,62.61 168,62.53 168.39,62.46 168.77,62.4 169.16,62.34 169.54,62.29 169.93,62.23 170.31,62.18 170.69,62.11 171.08,62.05 171.46,61.98 171.85,61.92 172.23,61.85 172.62,61.79 173,61.74 173.39,61.69 173.77,61.65 174.15,61.61 174.54,61.58 174.92,61.55 175.31,61.53 175.69,61.5 176.08,61.48 176.46,61.45 176.85,61.43 177.23,61.41 177.62,61.39 178,61.38 178.38,61.38 178.77,61.39 179.15,61.4 179.54,61.41 179.92,61.43 180.31,61.45 180.69,61.46 181.08,61.47 181.46,61.47 181.85,61.46 182.23,61.43 182.61,61.4 183,61.36 183.38,61.31 183.77,61.26 184.15,61.21 184.54,61.17 184.92,61.13 185.31,61.1 185.69,61.08 186.08,61.07 186.46,61.06 186.84,61.06 187.23,61.06 187.61,61.07 188,61.08 188.38,61.08 188.77,61.09 189.15,61.1 189.54,61.1 189.92,61.1 190.31,61.08 190.69,61.07 191.07,61.04 191.46,61 191.84,60.97 192.23,60.94 192.61,60.93 193,60.92 193.38,60.94 193.77,60.97 194.15,61.01 194.54,61.06 194.92,61.12 195.3,61.17 195.69,61.22 196.07,61.24 196.46,61.25 196.84,61.24 197.23,61.21 197.61,61.16 198,61.1 198.38,61.04 198.77,60.98 199.15,60.93 199.53,60.89 199.92,60.86 200.3,60.85 200.69,60.86 201.07,60.87 201.46,60.89 201.84,60.91 202.23,60.92 202.61,60.92 203,60.9 203.38,60.87 203.76,60.84 204.15,60.79 204.53,60.74 204.92,60.7 205.3,60.66 205.69,60.63 206.07,60.6 206.46,60.58 206.84,60.57 207.22,60.57 207.61,60.57 207.99,60.58 208.38,60.59 208.76,60.61 209.15,60.63 209.53,60.65 209.92,60.67 210.3,60.68 210.69,60.69 211.07,60.7 211.45,60.7 211.84,60.69 212.22,60.67 212.61,60.65 212.99,60.61 213.38,60.57 213.76,60.53 214.15,60.48 214.53,60.44 214.92,60.39 215.3,60.35 215.68,60.31 216.07,60.28 216.45,60.26 216.84,60.25 217.22,60.25 217.61,60.25 217.99,60.26 218.38,60.29 218.76,60.32 219.15,60.35 219.53,60.39 219.91,60.44 220.3,60.48 220.68,60.52 221.07,60.55 221.45,60.56 221.84,60.57 222.22,60.56 222.61,60.55 222.99,60.52 223.38,60.49 223.76,60.47 224.14,60.45 224.53,60.43 224.91,60.42 225.3,60.42 225.68,60.42 226.07,60.42 226.45,60.41 226.84,60.4 227.22,60.38 227.61,60.36 227.99,60.33 228.37,60.3 228.76,60.28 229.14,60.27 229.53,60.27 229.91,60.27 230.3,60.29 230.68,60.31 231.07,60.34 231.45,60.36 231.84,60.38 232.22,60.4 232.6,60.4 232.99,60.39 233.37,60.37 233.76,60.35 234.14,60.32 234.53,60.28 234.91,60.25 235.3,60.22 235.68,60.2 236.07,60.19 236.45,60.19 236.83,60.2 237.22,60.21 237.6,60.23 237.99,60.26 238.37,60.29 238.76,60.33 239.14,60.36 239.53,60.38 239.91,60.4 240.29,60.41 240.68,60.41 241.06,60.4 241.45,60.38 241.83,60.35 242.22,60.32 242.6,60.29 242.99,60.27 243.37,60.25 243.76,60.25 244.14,60.25 244.52,60.26 244.91,60.28 245.29,60.29 245.68,60.31 246.06,60.32 246.45,60.33 246.83,60.33 247.22,60.33 247.6,60.33 247.99,60.32 248.37,60.31 248.75,60.3 249.14,60.29 249.52,60.27 249.91,60.25 250.29,60.23 250.68,60.21 251.06,60.2 251.45,60.19 251.83,60.19 252.22,60.19 252.6,60.19 252.98,60.2 253.37,60.21 253.75,60.21 254.14,60.2 254.52,60.19 254.91,60.16 255.29,60.13 255.68,60.08 256.06,60.03 256.45,59.97 256.83,59.91 257.21,59.85 257.6,59.8 257.98,59.75 258.37,59.71 258.75,59.68 259.14,59.65 259.52,59.63 259.91,59.62 260.29,59.61 260.68,59.61 261.06,59.6 261.44,59.6 261.83,59.6" stroke-dasharray="none" stroke="rgb(31,120,180)" stroke-width="0.75" opacity="1" stroke-opacity="1" fill="none"/>
          </g>
        </g>
        <g id="Fig:densplot_01.panel.1.1.off.vp.2">
          <g id="Fig:densplot_01.border.panel.1.1.1">
            <rect id="Fig:densplot_01.border.panel.1.1.1.1" x="50.8" y="48.19" width="225.2" height="185.81" transform="" stroke="rgb(0,0,0)" stroke-dasharray="none" stroke-width="0.75" opacity="1" fill="none" stroke-opacity="1" fill-opacity="0"/>
          </g>
        </g>
        <g id="Fig:densplot_01..1"/>
      </g>
    </g>
  </g>
</svg>